M48
; DRILL file {KiCad 5.1.6+dfsg1-1} date Fri May  6 15:09:03 2022
; FORMAT={-:-/ absolute / metric / decimal}
; #@! TF.CreationDate,2022-05-06T15:09:03-04:00
; #@! TF.GenerationSoftware,Kicad,Pcbnew,5.1.6+dfsg1-1
; #@! TF.FileFunction,Plated,1,4,PTH
FMAT,2
METRIC
T1C1.000
%
G90
G05
T1
X198.12Y-101.6
X200.66Y-101.6
X203.2Y-101.6
X205.74Y-101.6
X208.28Y-101.6
X210.82Y-101.6
X213.36Y-101.6
X215.9Y-101.6
X218.44Y-101.6
X220.98Y-101.6
X223.52Y-101.6
X226.06Y-101.6
X228.6Y-101.6
X231.14Y-101.6
X190.5Y-113.03
X190.5Y-115.57
X190.5Y-118.11
X190.5Y-120.65
X198.12Y-93.98
X200.66Y-93.98
X203.2Y-93.98
X205.74Y-93.98
X208.28Y-93.98
X210.82Y-93.98
X213.36Y-93.98
X215.9Y-93.98
X218.44Y-93.98
X220.98Y-93.98
X223.52Y-93.98
X226.06Y-93.98
X228.6Y-93.98
X231.14Y-93.98
X190.5Y-74.93
X190.5Y-77.47
X190.5Y-80.01
X190.5Y-82.55
X162.56Y-74.93
X162.56Y-77.47
X162.56Y-80.01
X162.56Y-82.55
X162.56Y-85.09
X162.56Y-87.63
X162.56Y-90.17
X162.56Y-92.71
X162.56Y-95.25
X162.56Y-97.79
X162.56Y-100.33
X162.56Y-102.87
X162.56Y-105.41
X162.56Y-107.95
X162.56Y-110.49
X162.56Y-113.03
X162.56Y-115.57
X162.56Y-118.11
X162.56Y-120.65
X185.42Y-74.93
X185.42Y-77.47
X185.42Y-80.01
X185.42Y-82.55
X185.42Y-85.09
X185.42Y-87.63
X185.42Y-90.17
X185.42Y-92.71
X185.42Y-95.25
X185.42Y-97.79
X185.42Y-100.33
X185.42Y-102.87
X185.42Y-105.41
X185.42Y-107.95
X185.42Y-110.49
X185.42Y-113.03
X185.42Y-115.57
X185.42Y-118.11
X185.42Y-120.65
T0
M30
