G04 #@! TF.GenerationSoftware,KiCad,Pcbnew,5.1.6+dfsg1-1*
G04 #@! TF.CreationDate,2022-05-06T15:08:44-04:00*
G04 #@! TF.ProjectId,esp32-breadboard-adapter,65737033-322d-4627-9265-6164626f6172,rev?*
G04 #@! TF.SameCoordinates,Original*
G04 #@! TF.FileFunction,Legend,Bot*
G04 #@! TF.FilePolarity,Positive*
%FSLAX46Y46*%
G04 Gerber Fmt 4.6, Leading zero omitted, Abs format (unit mm)*
G04 Created by KiCad (PCBNEW 5.1.6+dfsg1-1) date 2022-05-06 15:08:44*
%MOMM*%
%LPD*%
G01*
G04 APERTURE LIST*
%ADD10C,0.120000*%
%ADD11C,0.150000*%
%ADD12O,1.800000X1.800000*%
%ADD13R,1.800000X1.800000*%
G04 APERTURE END LIST*
D10*
X232470000Y-92650000D02*
X232470000Y-95310000D01*
X199390000Y-92650000D02*
X232470000Y-92650000D01*
X199390000Y-95310000D02*
X232470000Y-95310000D01*
X199390000Y-92650000D02*
X199390000Y-95310000D01*
X198120000Y-92650000D02*
X196790000Y-92650000D01*
X196790000Y-92650000D02*
X196790000Y-93980000D01*
X232470000Y-100270000D02*
X232470000Y-102930000D01*
X199390000Y-100270000D02*
X232470000Y-100270000D01*
X199390000Y-102930000D02*
X232470000Y-102930000D01*
X199390000Y-100270000D02*
X199390000Y-102930000D01*
X198120000Y-100270000D02*
X196790000Y-100270000D01*
X196790000Y-100270000D02*
X196790000Y-101600000D01*
D11*
X195242380Y-93646666D02*
X195956666Y-93646666D01*
X196099523Y-93599047D01*
X196194761Y-93503809D01*
X196242380Y-93360952D01*
X196242380Y-93265714D01*
X195575714Y-94551428D02*
X196242380Y-94551428D01*
X195194761Y-94313333D02*
X195909047Y-94075238D01*
X195909047Y-94694285D01*
X195242380Y-101266666D02*
X195956666Y-101266666D01*
X196099523Y-101219047D01*
X196194761Y-101123809D01*
X196242380Y-100980952D01*
X196242380Y-100885714D01*
X195242380Y-101647619D02*
X195242380Y-102266666D01*
X195623333Y-101933333D01*
X195623333Y-102076190D01*
X195670952Y-102171428D01*
X195718571Y-102219047D01*
X195813809Y-102266666D01*
X196051904Y-102266666D01*
X196147142Y-102219047D01*
X196194761Y-102171428D01*
X196242380Y-102076190D01*
X196242380Y-101790476D01*
X196194761Y-101695238D01*
X196147142Y-101647619D01*
%LPC*%
D12*
X231140000Y-93980000D03*
X228600000Y-93980000D03*
X226060000Y-93980000D03*
X223520000Y-93980000D03*
X220980000Y-93980000D03*
X218440000Y-93980000D03*
X215900000Y-93980000D03*
X213360000Y-93980000D03*
X210820000Y-93980000D03*
X208280000Y-93980000D03*
X205740000Y-93980000D03*
X203200000Y-93980000D03*
X200660000Y-93980000D03*
D13*
X198120000Y-93980000D03*
D12*
X231140000Y-101600000D03*
X228600000Y-101600000D03*
X226060000Y-101600000D03*
X223520000Y-101600000D03*
X220980000Y-101600000D03*
X218440000Y-101600000D03*
X215900000Y-101600000D03*
X213360000Y-101600000D03*
X210820000Y-101600000D03*
X208280000Y-101600000D03*
X205740000Y-101600000D03*
X203200000Y-101600000D03*
X200660000Y-101600000D03*
D13*
X198120000Y-101600000D03*
D12*
X190500000Y-113030000D03*
X190500000Y-115570000D03*
X190500000Y-118110000D03*
D13*
X190500000Y-120650000D03*
D12*
X190500000Y-74930000D03*
X190500000Y-77470000D03*
X190500000Y-80010000D03*
D13*
X190500000Y-82550000D03*
D12*
X185420000Y-120650000D03*
X185420000Y-118110000D03*
X185420000Y-115570000D03*
X185420000Y-113030000D03*
X185420000Y-110490000D03*
X185420000Y-107950000D03*
X185420000Y-105410000D03*
X185420000Y-102870000D03*
X185420000Y-100330000D03*
X185420000Y-97790000D03*
X185420000Y-95250000D03*
X185420000Y-92710000D03*
X185420000Y-90170000D03*
X185420000Y-87630000D03*
X185420000Y-85090000D03*
X185420000Y-82550000D03*
X185420000Y-80010000D03*
X185420000Y-77470000D03*
D13*
X185420000Y-74930000D03*
D12*
X162560000Y-120650000D03*
X162560000Y-118110000D03*
X162560000Y-115570000D03*
X162560000Y-113030000D03*
X162560000Y-110490000D03*
X162560000Y-107950000D03*
X162560000Y-105410000D03*
X162560000Y-102870000D03*
X162560000Y-100330000D03*
X162560000Y-97790000D03*
X162560000Y-95250000D03*
X162560000Y-92710000D03*
X162560000Y-90170000D03*
X162560000Y-87630000D03*
X162560000Y-85090000D03*
X162560000Y-82550000D03*
X162560000Y-80010000D03*
X162560000Y-77470000D03*
D13*
X162560000Y-74930000D03*
M02*
