G04 #@! TF.GenerationSoftware,KiCad,Pcbnew,5.1.6+dfsg1-1*
G04 #@! TF.CreationDate,2022-05-06T15:08:44-04:00*
G04 #@! TF.ProjectId,esp32-breadboard-adapter,65737033-322d-4627-9265-6164626f6172,rev?*
G04 #@! TF.SameCoordinates,Original*
G04 #@! TF.FileFunction,Copper,L2,Inr*
G04 #@! TF.FilePolarity,Positive*
%FSLAX46Y46*%
G04 Gerber Fmt 4.6, Leading zero omitted, Abs format (unit mm)*
G04 Created by KiCad (PCBNEW 5.1.6+dfsg1-1) date 2022-05-06 15:08:44*
%MOMM*%
%LPD*%
G01*
G04 APERTURE LIST*
G04 #@! TA.AperFunction,ViaPad*
%ADD10O,1.700000X1.700000*%
G04 #@! TD*
G04 #@! TA.AperFunction,ViaPad*
%ADD11R,1.700000X1.700000*%
G04 #@! TD*
G04 #@! TA.AperFunction,Conductor*
%ADD12C,0.635000*%
G04 #@! TD*
G04 #@! TA.AperFunction,Conductor*
%ADD13C,0.254000*%
G04 #@! TD*
G04 APERTURE END LIST*
D10*
X231140000Y-93980000D03*
X228600000Y-93980000D03*
X226060000Y-93980000D03*
X223520000Y-93980000D03*
X220980000Y-93980000D03*
X218440000Y-93980000D03*
X215900000Y-93980000D03*
X213360000Y-93980000D03*
X210820000Y-93980000D03*
X208280000Y-93980000D03*
X205740000Y-93980000D03*
X203200000Y-93980000D03*
X200660000Y-93980000D03*
D11*
X198120000Y-93980000D03*
D10*
X231140000Y-101600000D03*
X228600000Y-101600000D03*
X226060000Y-101600000D03*
X223520000Y-101600000D03*
X220980000Y-101600000D03*
X218440000Y-101600000D03*
X215900000Y-101600000D03*
X213360000Y-101600000D03*
X210820000Y-101600000D03*
X208280000Y-101600000D03*
X205740000Y-101600000D03*
X203200000Y-101600000D03*
X200660000Y-101600000D03*
D11*
X198120000Y-101600000D03*
D10*
X190500000Y-113030000D03*
X190500000Y-115570000D03*
X190500000Y-118110000D03*
D11*
X190500000Y-120650000D03*
D10*
X190500000Y-74930000D03*
X190500000Y-77470000D03*
X190500000Y-80010000D03*
D11*
X190500000Y-82550000D03*
D10*
X185420000Y-120650000D03*
X185420000Y-118110000D03*
X185420000Y-115570000D03*
X185420000Y-113030000D03*
X185420000Y-110490000D03*
X185420000Y-107950000D03*
X185420000Y-105410000D03*
X185420000Y-102870000D03*
X185420000Y-100330000D03*
X185420000Y-97790000D03*
X185420000Y-95250000D03*
X185420000Y-92710000D03*
X185420000Y-90170000D03*
X185420000Y-87630000D03*
X185420000Y-85090000D03*
X185420000Y-82550000D03*
X185420000Y-80010000D03*
X185420000Y-77470000D03*
D11*
X185420000Y-74930000D03*
D10*
X162560000Y-120650000D03*
X162560000Y-118110000D03*
X162560000Y-115570000D03*
X162560000Y-113030000D03*
X162560000Y-110490000D03*
X162560000Y-107950000D03*
X162560000Y-105410000D03*
X162560000Y-102870000D03*
X162560000Y-100330000D03*
X162560000Y-97790000D03*
X162560000Y-95250000D03*
X162560000Y-92710000D03*
X162560000Y-90170000D03*
X162560000Y-87630000D03*
X162560000Y-85090000D03*
X162560000Y-82550000D03*
X162560000Y-80010000D03*
X162560000Y-77470000D03*
D11*
X162560000Y-74930000D03*
D12*
X190500000Y-82550000D02*
X187960000Y-85090000D01*
X187960000Y-85090000D02*
X187960000Y-99060000D01*
X190500000Y-113030000D02*
X190500000Y-96520000D01*
D13*
G36*
X161406525Y-98736632D02*
G01*
X161613368Y-98943475D01*
X161787760Y-99060000D01*
X161613368Y-99176525D01*
X161406525Y-99383368D01*
X161244010Y-99626589D01*
X161132068Y-99896842D01*
X161075000Y-100183740D01*
X161075000Y-100476260D01*
X161132068Y-100763158D01*
X161244010Y-101033411D01*
X161406525Y-101276632D01*
X161613368Y-101483475D01*
X161787760Y-101600000D01*
X161613368Y-101716525D01*
X161406525Y-101923368D01*
X161244010Y-102166589D01*
X161132068Y-102436842D01*
X161075000Y-102723740D01*
X161075000Y-103016260D01*
X161132068Y-103303158D01*
X161244010Y-103573411D01*
X161406525Y-103816632D01*
X161613368Y-104023475D01*
X161787760Y-104140000D01*
X161613368Y-104256525D01*
X161406525Y-104463368D01*
X161244010Y-104706589D01*
X161132068Y-104976842D01*
X161075000Y-105263740D01*
X161075000Y-105556260D01*
X161132068Y-105843158D01*
X161244010Y-106113411D01*
X161406525Y-106356632D01*
X161613368Y-106563475D01*
X161787760Y-106680000D01*
X161613368Y-106796525D01*
X161406525Y-107003368D01*
X161244010Y-107246589D01*
X161132068Y-107516842D01*
X161075000Y-107803740D01*
X161075000Y-108096260D01*
X161132068Y-108383158D01*
X161244010Y-108653411D01*
X161406525Y-108896632D01*
X161613368Y-109103475D01*
X161787760Y-109220000D01*
X161613368Y-109336525D01*
X161406525Y-109543368D01*
X161244010Y-109786589D01*
X161132068Y-110056842D01*
X161075000Y-110343740D01*
X161075000Y-110636260D01*
X161132068Y-110923158D01*
X161244010Y-111193411D01*
X161406525Y-111436632D01*
X161613368Y-111643475D01*
X161787760Y-111760000D01*
X161613368Y-111876525D01*
X161406525Y-112083368D01*
X161244010Y-112326589D01*
X161132068Y-112596842D01*
X161075000Y-112883740D01*
X161075000Y-113176260D01*
X161132068Y-113463158D01*
X161244010Y-113733411D01*
X161406525Y-113976632D01*
X161613368Y-114183475D01*
X161787760Y-114300000D01*
X161613368Y-114416525D01*
X161406525Y-114623368D01*
X161244010Y-114866589D01*
X161132068Y-115136842D01*
X161075000Y-115423740D01*
X161075000Y-115716260D01*
X161132068Y-116003158D01*
X161244010Y-116273411D01*
X161406525Y-116516632D01*
X161613368Y-116723475D01*
X161787760Y-116840000D01*
X161613368Y-116956525D01*
X161406525Y-117163368D01*
X161244010Y-117406589D01*
X161132068Y-117676842D01*
X161075000Y-117963740D01*
X161075000Y-118256260D01*
X161132068Y-118543158D01*
X161244010Y-118813411D01*
X161406525Y-119056632D01*
X161613368Y-119263475D01*
X161795534Y-119385195D01*
X161678645Y-119454822D01*
X161462412Y-119649731D01*
X161288359Y-119883080D01*
X161163175Y-120145901D01*
X161118524Y-120293110D01*
X161239845Y-120523000D01*
X162433000Y-120523000D01*
X162433000Y-120503000D01*
X162687000Y-120503000D01*
X162687000Y-120523000D01*
X163880155Y-120523000D01*
X164001476Y-120293110D01*
X163956825Y-120145901D01*
X163831641Y-119883080D01*
X163657588Y-119649731D01*
X163441355Y-119454822D01*
X163324466Y-119385195D01*
X163506632Y-119263475D01*
X163713475Y-119056632D01*
X163875990Y-118813411D01*
X163987932Y-118543158D01*
X164045000Y-118256260D01*
X164045000Y-117963740D01*
X163987932Y-117676842D01*
X163875990Y-117406589D01*
X163713475Y-117163368D01*
X163506632Y-116956525D01*
X163332240Y-116840000D01*
X163506632Y-116723475D01*
X163713475Y-116516632D01*
X163875990Y-116273411D01*
X163987932Y-116003158D01*
X164045000Y-115716260D01*
X164045000Y-115423740D01*
X163987932Y-115136842D01*
X163875990Y-114866589D01*
X163713475Y-114623368D01*
X163506632Y-114416525D01*
X163332240Y-114300000D01*
X163506632Y-114183475D01*
X163713475Y-113976632D01*
X163875990Y-113733411D01*
X163987932Y-113463158D01*
X164045000Y-113176260D01*
X164045000Y-112883740D01*
X163987932Y-112596842D01*
X163875990Y-112326589D01*
X163713475Y-112083368D01*
X163506632Y-111876525D01*
X163332240Y-111760000D01*
X163506632Y-111643475D01*
X163713475Y-111436632D01*
X163875990Y-111193411D01*
X163987932Y-110923158D01*
X164045000Y-110636260D01*
X164045000Y-110343740D01*
X163987932Y-110056842D01*
X163875990Y-109786589D01*
X163713475Y-109543368D01*
X163506632Y-109336525D01*
X163332240Y-109220000D01*
X163506632Y-109103475D01*
X163713475Y-108896632D01*
X163875990Y-108653411D01*
X163987932Y-108383158D01*
X164045000Y-108096260D01*
X164045000Y-107803740D01*
X163987932Y-107516842D01*
X163875990Y-107246589D01*
X163713475Y-107003368D01*
X163506632Y-106796525D01*
X163332240Y-106680000D01*
X163506632Y-106563475D01*
X163713475Y-106356632D01*
X163875990Y-106113411D01*
X163987932Y-105843158D01*
X164045000Y-105556260D01*
X164045000Y-105263740D01*
X163987932Y-104976842D01*
X163875990Y-104706589D01*
X163713475Y-104463368D01*
X163506632Y-104256525D01*
X163332240Y-104140000D01*
X163506632Y-104023475D01*
X163713475Y-103816632D01*
X163875990Y-103573411D01*
X163987932Y-103303158D01*
X164045000Y-103016260D01*
X164045000Y-102723740D01*
X163987932Y-102436842D01*
X163875990Y-102166589D01*
X163713475Y-101923368D01*
X163506632Y-101716525D01*
X163332240Y-101600000D01*
X163506632Y-101483475D01*
X163713475Y-101276632D01*
X163875990Y-101033411D01*
X163987932Y-100763158D01*
X164045000Y-100476260D01*
X164045000Y-100183740D01*
X163987932Y-99896842D01*
X163875990Y-99626589D01*
X163713475Y-99383368D01*
X163506632Y-99176525D01*
X163332240Y-99060000D01*
X163506632Y-98943475D01*
X163713475Y-98736632D01*
X163836842Y-98552000D01*
X184143158Y-98552000D01*
X184266525Y-98736632D01*
X184473368Y-98943475D01*
X184647760Y-99060000D01*
X184473368Y-99176525D01*
X184266525Y-99383368D01*
X184104010Y-99626589D01*
X183992068Y-99896842D01*
X183935000Y-100183740D01*
X183935000Y-100476260D01*
X183992068Y-100763158D01*
X184104010Y-101033411D01*
X184266525Y-101276632D01*
X184473368Y-101483475D01*
X184647760Y-101600000D01*
X184473368Y-101716525D01*
X184266525Y-101923368D01*
X184104010Y-102166589D01*
X183992068Y-102436842D01*
X183935000Y-102723740D01*
X183935000Y-103016260D01*
X183992068Y-103303158D01*
X184104010Y-103573411D01*
X184266525Y-103816632D01*
X184473368Y-104023475D01*
X184647760Y-104140000D01*
X184473368Y-104256525D01*
X184266525Y-104463368D01*
X184104010Y-104706589D01*
X183992068Y-104976842D01*
X183935000Y-105263740D01*
X183935000Y-105556260D01*
X183992068Y-105843158D01*
X184104010Y-106113411D01*
X184266525Y-106356632D01*
X184473368Y-106563475D01*
X184647760Y-106680000D01*
X184473368Y-106796525D01*
X184266525Y-107003368D01*
X184104010Y-107246589D01*
X183992068Y-107516842D01*
X183935000Y-107803740D01*
X183935000Y-108096260D01*
X183992068Y-108383158D01*
X184104010Y-108653411D01*
X184266525Y-108896632D01*
X184473368Y-109103475D01*
X184647760Y-109220000D01*
X184473368Y-109336525D01*
X184266525Y-109543368D01*
X184104010Y-109786589D01*
X183992068Y-110056842D01*
X183935000Y-110343740D01*
X183935000Y-110636260D01*
X183992068Y-110923158D01*
X184104010Y-111193411D01*
X184266525Y-111436632D01*
X184473368Y-111643475D01*
X184647760Y-111760000D01*
X184473368Y-111876525D01*
X184266525Y-112083368D01*
X184104010Y-112326589D01*
X183992068Y-112596842D01*
X183935000Y-112883740D01*
X183935000Y-113176260D01*
X183992068Y-113463158D01*
X184104010Y-113733411D01*
X184266525Y-113976632D01*
X184473368Y-114183475D01*
X184647760Y-114300000D01*
X184473368Y-114416525D01*
X184266525Y-114623368D01*
X184104010Y-114866589D01*
X183992068Y-115136842D01*
X183935000Y-115423740D01*
X183935000Y-115716260D01*
X183992068Y-116003158D01*
X184104010Y-116273411D01*
X184266525Y-116516632D01*
X184473368Y-116723475D01*
X184647760Y-116840000D01*
X184473368Y-116956525D01*
X184266525Y-117163368D01*
X184104010Y-117406589D01*
X183992068Y-117676842D01*
X183935000Y-117963740D01*
X183935000Y-118256260D01*
X183992068Y-118543158D01*
X184104010Y-118813411D01*
X184266525Y-119056632D01*
X184473368Y-119263475D01*
X184647760Y-119380000D01*
X184473368Y-119496525D01*
X184266525Y-119703368D01*
X184104010Y-119946589D01*
X183992068Y-120216842D01*
X183935000Y-120503740D01*
X183935000Y-120796260D01*
X183992068Y-121083158D01*
X184104010Y-121353411D01*
X184266525Y-121596632D01*
X184473368Y-121803475D01*
X184716589Y-121965990D01*
X184986842Y-122077932D01*
X185273740Y-122135000D01*
X185566260Y-122135000D01*
X185853158Y-122077932D01*
X186123411Y-121965990D01*
X186366632Y-121803475D01*
X186573475Y-121596632D01*
X186638042Y-121500000D01*
X189011928Y-121500000D01*
X189024188Y-121624482D01*
X189060498Y-121744180D01*
X189119463Y-121854494D01*
X189198815Y-121951185D01*
X189295506Y-122030537D01*
X189405820Y-122089502D01*
X189525518Y-122125812D01*
X189650000Y-122138072D01*
X190214250Y-122135000D01*
X190373000Y-121976250D01*
X190373000Y-120777000D01*
X190627000Y-120777000D01*
X190627000Y-121976250D01*
X190785750Y-122135000D01*
X191350000Y-122138072D01*
X191474482Y-122125812D01*
X191594180Y-122089502D01*
X191704494Y-122030537D01*
X191801185Y-121951185D01*
X191880537Y-121854494D01*
X191939502Y-121744180D01*
X191975812Y-121624482D01*
X191988072Y-121500000D01*
X191985000Y-120935750D01*
X191826250Y-120777000D01*
X190627000Y-120777000D01*
X190373000Y-120777000D01*
X189173750Y-120777000D01*
X189015000Y-120935750D01*
X189011928Y-121500000D01*
X186638042Y-121500000D01*
X186735990Y-121353411D01*
X186847932Y-121083158D01*
X186905000Y-120796260D01*
X186905000Y-120503740D01*
X186847932Y-120216842D01*
X186735990Y-119946589D01*
X186573475Y-119703368D01*
X186366632Y-119496525D01*
X186192240Y-119380000D01*
X186366632Y-119263475D01*
X186573475Y-119056632D01*
X186735990Y-118813411D01*
X186847932Y-118543158D01*
X186905000Y-118256260D01*
X186905000Y-117963740D01*
X186847932Y-117676842D01*
X186735990Y-117406589D01*
X186573475Y-117163368D01*
X186366632Y-116956525D01*
X186192240Y-116840000D01*
X186366632Y-116723475D01*
X186573475Y-116516632D01*
X186735990Y-116273411D01*
X186847932Y-116003158D01*
X186905000Y-115716260D01*
X186905000Y-115423740D01*
X186847932Y-115136842D01*
X186735990Y-114866589D01*
X186573475Y-114623368D01*
X186366632Y-114416525D01*
X186192240Y-114300000D01*
X186366632Y-114183475D01*
X186573475Y-113976632D01*
X186735990Y-113733411D01*
X186847932Y-113463158D01*
X186905000Y-113176260D01*
X186905000Y-112883740D01*
X186847932Y-112596842D01*
X186735990Y-112326589D01*
X186573475Y-112083368D01*
X186366632Y-111876525D01*
X186192240Y-111760000D01*
X186366632Y-111643475D01*
X186573475Y-111436632D01*
X186735990Y-111193411D01*
X186847932Y-110923158D01*
X186905000Y-110636260D01*
X186905000Y-110343740D01*
X186847932Y-110056842D01*
X186735990Y-109786589D01*
X186573475Y-109543368D01*
X186366632Y-109336525D01*
X186192240Y-109220000D01*
X186366632Y-109103475D01*
X186573475Y-108896632D01*
X186735990Y-108653411D01*
X186847932Y-108383158D01*
X186905000Y-108096260D01*
X186905000Y-107803740D01*
X186847932Y-107516842D01*
X186735990Y-107246589D01*
X186573475Y-107003368D01*
X186366632Y-106796525D01*
X186192240Y-106680000D01*
X186366632Y-106563475D01*
X186573475Y-106356632D01*
X186735990Y-106113411D01*
X186847932Y-105843158D01*
X186905000Y-105556260D01*
X186905000Y-105263740D01*
X186847932Y-104976842D01*
X186735990Y-104706589D01*
X186573475Y-104463368D01*
X186366632Y-104256525D01*
X186192240Y-104140000D01*
X186366632Y-104023475D01*
X186573475Y-103816632D01*
X186735990Y-103573411D01*
X186847932Y-103303158D01*
X186905000Y-103016260D01*
X186905000Y-102723740D01*
X186847932Y-102436842D01*
X186735990Y-102166589D01*
X186573475Y-101923368D01*
X186366632Y-101716525D01*
X186192240Y-101600000D01*
X186366632Y-101483475D01*
X186573475Y-101276632D01*
X186735990Y-101033411D01*
X186847932Y-100763158D01*
X186905000Y-100476260D01*
X186905000Y-100183740D01*
X186847932Y-99896842D01*
X186735990Y-99626589D01*
X186573475Y-99383368D01*
X186366632Y-99176525D01*
X186192240Y-99060000D01*
X186366632Y-98943475D01*
X186573475Y-98736632D01*
X186696842Y-98552000D01*
X189547501Y-98552000D01*
X189547500Y-111882393D01*
X189346525Y-112083368D01*
X189184010Y-112326589D01*
X189072068Y-112596842D01*
X189015000Y-112883740D01*
X189015000Y-113176260D01*
X189072068Y-113463158D01*
X189184010Y-113733411D01*
X189346525Y-113976632D01*
X189553368Y-114183475D01*
X189727760Y-114300000D01*
X189553368Y-114416525D01*
X189346525Y-114623368D01*
X189184010Y-114866589D01*
X189072068Y-115136842D01*
X189015000Y-115423740D01*
X189015000Y-115716260D01*
X189072068Y-116003158D01*
X189184010Y-116273411D01*
X189346525Y-116516632D01*
X189553368Y-116723475D01*
X189727760Y-116840000D01*
X189553368Y-116956525D01*
X189346525Y-117163368D01*
X189184010Y-117406589D01*
X189072068Y-117676842D01*
X189015000Y-117963740D01*
X189015000Y-118256260D01*
X189072068Y-118543158D01*
X189184010Y-118813411D01*
X189346525Y-119056632D01*
X189478380Y-119188487D01*
X189405820Y-119210498D01*
X189295506Y-119269463D01*
X189198815Y-119348815D01*
X189119463Y-119445506D01*
X189060498Y-119555820D01*
X189024188Y-119675518D01*
X189011928Y-119800000D01*
X189015000Y-120364250D01*
X189173750Y-120523000D01*
X190373000Y-120523000D01*
X190373000Y-120503000D01*
X190627000Y-120503000D01*
X190627000Y-120523000D01*
X191826250Y-120523000D01*
X191985000Y-120364250D01*
X191988072Y-119800000D01*
X191975812Y-119675518D01*
X191939502Y-119555820D01*
X191880537Y-119445506D01*
X191801185Y-119348815D01*
X191704494Y-119269463D01*
X191594180Y-119210498D01*
X191521620Y-119188487D01*
X191653475Y-119056632D01*
X191815990Y-118813411D01*
X191927932Y-118543158D01*
X191985000Y-118256260D01*
X191985000Y-117963740D01*
X191927932Y-117676842D01*
X191815990Y-117406589D01*
X191653475Y-117163368D01*
X191446632Y-116956525D01*
X191272240Y-116840000D01*
X191446632Y-116723475D01*
X191653475Y-116516632D01*
X191815990Y-116273411D01*
X191927932Y-116003158D01*
X191985000Y-115716260D01*
X191985000Y-115423740D01*
X191927932Y-115136842D01*
X191815990Y-114866589D01*
X191653475Y-114623368D01*
X191446632Y-114416525D01*
X191272240Y-114300000D01*
X191446632Y-114183475D01*
X191653475Y-113976632D01*
X191815990Y-113733411D01*
X191927932Y-113463158D01*
X191985000Y-113176260D01*
X191985000Y-112883740D01*
X191927932Y-112596842D01*
X191815990Y-112326589D01*
X191653475Y-112083368D01*
X191452500Y-111882393D01*
X191452500Y-100750000D01*
X196631928Y-100750000D01*
X196635000Y-101314250D01*
X196793750Y-101473000D01*
X197993000Y-101473000D01*
X197993000Y-100273750D01*
X197834250Y-100115000D01*
X197270000Y-100111928D01*
X197145518Y-100124188D01*
X197025820Y-100160498D01*
X196915506Y-100219463D01*
X196818815Y-100298815D01*
X196739463Y-100395506D01*
X196680498Y-100505820D01*
X196644188Y-100625518D01*
X196631928Y-100750000D01*
X191452500Y-100750000D01*
X191452500Y-98552000D01*
X231750001Y-98552000D01*
X231750001Y-100245318D01*
X231573158Y-100172068D01*
X231286260Y-100115000D01*
X230993740Y-100115000D01*
X230706842Y-100172068D01*
X230436589Y-100284010D01*
X230193368Y-100446525D01*
X229986525Y-100653368D01*
X229870000Y-100827760D01*
X229753475Y-100653368D01*
X229546632Y-100446525D01*
X229303411Y-100284010D01*
X229033158Y-100172068D01*
X228746260Y-100115000D01*
X228453740Y-100115000D01*
X228166842Y-100172068D01*
X227896589Y-100284010D01*
X227653368Y-100446525D01*
X227446525Y-100653368D01*
X227330000Y-100827760D01*
X227213475Y-100653368D01*
X227006632Y-100446525D01*
X226763411Y-100284010D01*
X226493158Y-100172068D01*
X226206260Y-100115000D01*
X225913740Y-100115000D01*
X225626842Y-100172068D01*
X225356589Y-100284010D01*
X225113368Y-100446525D01*
X224906525Y-100653368D01*
X224790000Y-100827760D01*
X224673475Y-100653368D01*
X224466632Y-100446525D01*
X224223411Y-100284010D01*
X223953158Y-100172068D01*
X223666260Y-100115000D01*
X223373740Y-100115000D01*
X223086842Y-100172068D01*
X222816589Y-100284010D01*
X222573368Y-100446525D01*
X222366525Y-100653368D01*
X222250000Y-100827760D01*
X222133475Y-100653368D01*
X221926632Y-100446525D01*
X221683411Y-100284010D01*
X221413158Y-100172068D01*
X221126260Y-100115000D01*
X220833740Y-100115000D01*
X220546842Y-100172068D01*
X220276589Y-100284010D01*
X220033368Y-100446525D01*
X219826525Y-100653368D01*
X219710000Y-100827760D01*
X219593475Y-100653368D01*
X219386632Y-100446525D01*
X219143411Y-100284010D01*
X218873158Y-100172068D01*
X218586260Y-100115000D01*
X218293740Y-100115000D01*
X218006842Y-100172068D01*
X217736589Y-100284010D01*
X217493368Y-100446525D01*
X217286525Y-100653368D01*
X217170000Y-100827760D01*
X217053475Y-100653368D01*
X216846632Y-100446525D01*
X216603411Y-100284010D01*
X216333158Y-100172068D01*
X216046260Y-100115000D01*
X215753740Y-100115000D01*
X215466842Y-100172068D01*
X215196589Y-100284010D01*
X214953368Y-100446525D01*
X214746525Y-100653368D01*
X214630000Y-100827760D01*
X214513475Y-100653368D01*
X214306632Y-100446525D01*
X214063411Y-100284010D01*
X213793158Y-100172068D01*
X213506260Y-100115000D01*
X213213740Y-100115000D01*
X212926842Y-100172068D01*
X212656589Y-100284010D01*
X212413368Y-100446525D01*
X212206525Y-100653368D01*
X212090000Y-100827760D01*
X211973475Y-100653368D01*
X211766632Y-100446525D01*
X211523411Y-100284010D01*
X211253158Y-100172068D01*
X210966260Y-100115000D01*
X210673740Y-100115000D01*
X210386842Y-100172068D01*
X210116589Y-100284010D01*
X209873368Y-100446525D01*
X209666525Y-100653368D01*
X209550000Y-100827760D01*
X209433475Y-100653368D01*
X209226632Y-100446525D01*
X208983411Y-100284010D01*
X208713158Y-100172068D01*
X208426260Y-100115000D01*
X208133740Y-100115000D01*
X207846842Y-100172068D01*
X207576589Y-100284010D01*
X207333368Y-100446525D01*
X207126525Y-100653368D01*
X207010000Y-100827760D01*
X206893475Y-100653368D01*
X206686632Y-100446525D01*
X206443411Y-100284010D01*
X206173158Y-100172068D01*
X205886260Y-100115000D01*
X205593740Y-100115000D01*
X205306842Y-100172068D01*
X205036589Y-100284010D01*
X204793368Y-100446525D01*
X204586525Y-100653368D01*
X204470000Y-100827760D01*
X204353475Y-100653368D01*
X204146632Y-100446525D01*
X203903411Y-100284010D01*
X203633158Y-100172068D01*
X203346260Y-100115000D01*
X203053740Y-100115000D01*
X202766842Y-100172068D01*
X202496589Y-100284010D01*
X202253368Y-100446525D01*
X202046525Y-100653368D01*
X201930000Y-100827760D01*
X201813475Y-100653368D01*
X201606632Y-100446525D01*
X201363411Y-100284010D01*
X201093158Y-100172068D01*
X200806260Y-100115000D01*
X200513740Y-100115000D01*
X200226842Y-100172068D01*
X199956589Y-100284010D01*
X199713368Y-100446525D01*
X199581513Y-100578380D01*
X199559502Y-100505820D01*
X199500537Y-100395506D01*
X199421185Y-100298815D01*
X199324494Y-100219463D01*
X199214180Y-100160498D01*
X199094482Y-100124188D01*
X198970000Y-100111928D01*
X198405750Y-100115000D01*
X198247000Y-100273750D01*
X198247000Y-101473000D01*
X198267000Y-101473000D01*
X198267000Y-101727000D01*
X198247000Y-101727000D01*
X198247000Y-101747000D01*
X197993000Y-101747000D01*
X197993000Y-101727000D01*
X196793750Y-101727000D01*
X196635000Y-101885750D01*
X196633235Y-102210000D01*
X194342419Y-102210000D01*
X194310000Y-102206807D01*
X194277581Y-102210000D01*
X194180617Y-102219550D01*
X194056207Y-102257290D01*
X193941550Y-102318575D01*
X193841052Y-102401052D01*
X193758575Y-102501550D01*
X193697290Y-102616207D01*
X193659550Y-102740617D01*
X193646807Y-102870000D01*
X193650000Y-102902419D01*
X193650001Y-122530000D01*
X160680000Y-122530000D01*
X160680000Y-121006890D01*
X161118524Y-121006890D01*
X161163175Y-121154099D01*
X161288359Y-121416920D01*
X161462412Y-121650269D01*
X161678645Y-121845178D01*
X161928748Y-121994157D01*
X162203109Y-122091481D01*
X162433000Y-121970814D01*
X162433000Y-120777000D01*
X162687000Y-120777000D01*
X162687000Y-121970814D01*
X162916891Y-122091481D01*
X163191252Y-121994157D01*
X163441355Y-121845178D01*
X163657588Y-121650269D01*
X163831641Y-121416920D01*
X163956825Y-121154099D01*
X164001476Y-121006890D01*
X163880155Y-120777000D01*
X162687000Y-120777000D01*
X162433000Y-120777000D01*
X161239845Y-120777000D01*
X161118524Y-121006890D01*
X160680000Y-121006890D01*
X160680000Y-98552000D01*
X161283158Y-98552000D01*
X161406525Y-98736632D01*
G37*
X161406525Y-98736632D02*
X161613368Y-98943475D01*
X161787760Y-99060000D01*
X161613368Y-99176525D01*
X161406525Y-99383368D01*
X161244010Y-99626589D01*
X161132068Y-99896842D01*
X161075000Y-100183740D01*
X161075000Y-100476260D01*
X161132068Y-100763158D01*
X161244010Y-101033411D01*
X161406525Y-101276632D01*
X161613368Y-101483475D01*
X161787760Y-101600000D01*
X161613368Y-101716525D01*
X161406525Y-101923368D01*
X161244010Y-102166589D01*
X161132068Y-102436842D01*
X161075000Y-102723740D01*
X161075000Y-103016260D01*
X161132068Y-103303158D01*
X161244010Y-103573411D01*
X161406525Y-103816632D01*
X161613368Y-104023475D01*
X161787760Y-104140000D01*
X161613368Y-104256525D01*
X161406525Y-104463368D01*
X161244010Y-104706589D01*
X161132068Y-104976842D01*
X161075000Y-105263740D01*
X161075000Y-105556260D01*
X161132068Y-105843158D01*
X161244010Y-106113411D01*
X161406525Y-106356632D01*
X161613368Y-106563475D01*
X161787760Y-106680000D01*
X161613368Y-106796525D01*
X161406525Y-107003368D01*
X161244010Y-107246589D01*
X161132068Y-107516842D01*
X161075000Y-107803740D01*
X161075000Y-108096260D01*
X161132068Y-108383158D01*
X161244010Y-108653411D01*
X161406525Y-108896632D01*
X161613368Y-109103475D01*
X161787760Y-109220000D01*
X161613368Y-109336525D01*
X161406525Y-109543368D01*
X161244010Y-109786589D01*
X161132068Y-110056842D01*
X161075000Y-110343740D01*
X161075000Y-110636260D01*
X161132068Y-110923158D01*
X161244010Y-111193411D01*
X161406525Y-111436632D01*
X161613368Y-111643475D01*
X161787760Y-111760000D01*
X161613368Y-111876525D01*
X161406525Y-112083368D01*
X161244010Y-112326589D01*
X161132068Y-112596842D01*
X161075000Y-112883740D01*
X161075000Y-113176260D01*
X161132068Y-113463158D01*
X161244010Y-113733411D01*
X161406525Y-113976632D01*
X161613368Y-114183475D01*
X161787760Y-114300000D01*
X161613368Y-114416525D01*
X161406525Y-114623368D01*
X161244010Y-114866589D01*
X161132068Y-115136842D01*
X161075000Y-115423740D01*
X161075000Y-115716260D01*
X161132068Y-116003158D01*
X161244010Y-116273411D01*
X161406525Y-116516632D01*
X161613368Y-116723475D01*
X161787760Y-116840000D01*
X161613368Y-116956525D01*
X161406525Y-117163368D01*
X161244010Y-117406589D01*
X161132068Y-117676842D01*
X161075000Y-117963740D01*
X161075000Y-118256260D01*
X161132068Y-118543158D01*
X161244010Y-118813411D01*
X161406525Y-119056632D01*
X161613368Y-119263475D01*
X161795534Y-119385195D01*
X161678645Y-119454822D01*
X161462412Y-119649731D01*
X161288359Y-119883080D01*
X161163175Y-120145901D01*
X161118524Y-120293110D01*
X161239845Y-120523000D01*
X162433000Y-120523000D01*
X162433000Y-120503000D01*
X162687000Y-120503000D01*
X162687000Y-120523000D01*
X163880155Y-120523000D01*
X164001476Y-120293110D01*
X163956825Y-120145901D01*
X163831641Y-119883080D01*
X163657588Y-119649731D01*
X163441355Y-119454822D01*
X163324466Y-119385195D01*
X163506632Y-119263475D01*
X163713475Y-119056632D01*
X163875990Y-118813411D01*
X163987932Y-118543158D01*
X164045000Y-118256260D01*
X164045000Y-117963740D01*
X163987932Y-117676842D01*
X163875990Y-117406589D01*
X163713475Y-117163368D01*
X163506632Y-116956525D01*
X163332240Y-116840000D01*
X163506632Y-116723475D01*
X163713475Y-116516632D01*
X163875990Y-116273411D01*
X163987932Y-116003158D01*
X164045000Y-115716260D01*
X164045000Y-115423740D01*
X163987932Y-115136842D01*
X163875990Y-114866589D01*
X163713475Y-114623368D01*
X163506632Y-114416525D01*
X163332240Y-114300000D01*
X163506632Y-114183475D01*
X163713475Y-113976632D01*
X163875990Y-113733411D01*
X163987932Y-113463158D01*
X164045000Y-113176260D01*
X164045000Y-112883740D01*
X163987932Y-112596842D01*
X163875990Y-112326589D01*
X163713475Y-112083368D01*
X163506632Y-111876525D01*
X163332240Y-111760000D01*
X163506632Y-111643475D01*
X163713475Y-111436632D01*
X163875990Y-111193411D01*
X163987932Y-110923158D01*
X164045000Y-110636260D01*
X164045000Y-110343740D01*
X163987932Y-110056842D01*
X163875990Y-109786589D01*
X163713475Y-109543368D01*
X163506632Y-109336525D01*
X163332240Y-109220000D01*
X163506632Y-109103475D01*
X163713475Y-108896632D01*
X163875990Y-108653411D01*
X163987932Y-108383158D01*
X164045000Y-108096260D01*
X164045000Y-107803740D01*
X163987932Y-107516842D01*
X163875990Y-107246589D01*
X163713475Y-107003368D01*
X163506632Y-106796525D01*
X163332240Y-106680000D01*
X163506632Y-106563475D01*
X163713475Y-106356632D01*
X163875990Y-106113411D01*
X163987932Y-105843158D01*
X164045000Y-105556260D01*
X164045000Y-105263740D01*
X163987932Y-104976842D01*
X163875990Y-104706589D01*
X163713475Y-104463368D01*
X163506632Y-104256525D01*
X163332240Y-104140000D01*
X163506632Y-104023475D01*
X163713475Y-103816632D01*
X163875990Y-103573411D01*
X163987932Y-103303158D01*
X164045000Y-103016260D01*
X164045000Y-102723740D01*
X163987932Y-102436842D01*
X163875990Y-102166589D01*
X163713475Y-101923368D01*
X163506632Y-101716525D01*
X163332240Y-101600000D01*
X163506632Y-101483475D01*
X163713475Y-101276632D01*
X163875990Y-101033411D01*
X163987932Y-100763158D01*
X164045000Y-100476260D01*
X164045000Y-100183740D01*
X163987932Y-99896842D01*
X163875990Y-99626589D01*
X163713475Y-99383368D01*
X163506632Y-99176525D01*
X163332240Y-99060000D01*
X163506632Y-98943475D01*
X163713475Y-98736632D01*
X163836842Y-98552000D01*
X184143158Y-98552000D01*
X184266525Y-98736632D01*
X184473368Y-98943475D01*
X184647760Y-99060000D01*
X184473368Y-99176525D01*
X184266525Y-99383368D01*
X184104010Y-99626589D01*
X183992068Y-99896842D01*
X183935000Y-100183740D01*
X183935000Y-100476260D01*
X183992068Y-100763158D01*
X184104010Y-101033411D01*
X184266525Y-101276632D01*
X184473368Y-101483475D01*
X184647760Y-101600000D01*
X184473368Y-101716525D01*
X184266525Y-101923368D01*
X184104010Y-102166589D01*
X183992068Y-102436842D01*
X183935000Y-102723740D01*
X183935000Y-103016260D01*
X183992068Y-103303158D01*
X184104010Y-103573411D01*
X184266525Y-103816632D01*
X184473368Y-104023475D01*
X184647760Y-104140000D01*
X184473368Y-104256525D01*
X184266525Y-104463368D01*
X184104010Y-104706589D01*
X183992068Y-104976842D01*
X183935000Y-105263740D01*
X183935000Y-105556260D01*
X183992068Y-105843158D01*
X184104010Y-106113411D01*
X184266525Y-106356632D01*
X184473368Y-106563475D01*
X184647760Y-106680000D01*
X184473368Y-106796525D01*
X184266525Y-107003368D01*
X184104010Y-107246589D01*
X183992068Y-107516842D01*
X183935000Y-107803740D01*
X183935000Y-108096260D01*
X183992068Y-108383158D01*
X184104010Y-108653411D01*
X184266525Y-108896632D01*
X184473368Y-109103475D01*
X184647760Y-109220000D01*
X184473368Y-109336525D01*
X184266525Y-109543368D01*
X184104010Y-109786589D01*
X183992068Y-110056842D01*
X183935000Y-110343740D01*
X183935000Y-110636260D01*
X183992068Y-110923158D01*
X184104010Y-111193411D01*
X184266525Y-111436632D01*
X184473368Y-111643475D01*
X184647760Y-111760000D01*
X184473368Y-111876525D01*
X184266525Y-112083368D01*
X184104010Y-112326589D01*
X183992068Y-112596842D01*
X183935000Y-112883740D01*
X183935000Y-113176260D01*
X183992068Y-113463158D01*
X184104010Y-113733411D01*
X184266525Y-113976632D01*
X184473368Y-114183475D01*
X184647760Y-114300000D01*
X184473368Y-114416525D01*
X184266525Y-114623368D01*
X184104010Y-114866589D01*
X183992068Y-115136842D01*
X183935000Y-115423740D01*
X183935000Y-115716260D01*
X183992068Y-116003158D01*
X184104010Y-116273411D01*
X184266525Y-116516632D01*
X184473368Y-116723475D01*
X184647760Y-116840000D01*
X184473368Y-116956525D01*
X184266525Y-117163368D01*
X184104010Y-117406589D01*
X183992068Y-117676842D01*
X183935000Y-117963740D01*
X183935000Y-118256260D01*
X183992068Y-118543158D01*
X184104010Y-118813411D01*
X184266525Y-119056632D01*
X184473368Y-119263475D01*
X184647760Y-119380000D01*
X184473368Y-119496525D01*
X184266525Y-119703368D01*
X184104010Y-119946589D01*
X183992068Y-120216842D01*
X183935000Y-120503740D01*
X183935000Y-120796260D01*
X183992068Y-121083158D01*
X184104010Y-121353411D01*
X184266525Y-121596632D01*
X184473368Y-121803475D01*
X184716589Y-121965990D01*
X184986842Y-122077932D01*
X185273740Y-122135000D01*
X185566260Y-122135000D01*
X185853158Y-122077932D01*
X186123411Y-121965990D01*
X186366632Y-121803475D01*
X186573475Y-121596632D01*
X186638042Y-121500000D01*
X189011928Y-121500000D01*
X189024188Y-121624482D01*
X189060498Y-121744180D01*
X189119463Y-121854494D01*
X189198815Y-121951185D01*
X189295506Y-122030537D01*
X189405820Y-122089502D01*
X189525518Y-122125812D01*
X189650000Y-122138072D01*
X190214250Y-122135000D01*
X190373000Y-121976250D01*
X190373000Y-120777000D01*
X190627000Y-120777000D01*
X190627000Y-121976250D01*
X190785750Y-122135000D01*
X191350000Y-122138072D01*
X191474482Y-122125812D01*
X191594180Y-122089502D01*
X191704494Y-122030537D01*
X191801185Y-121951185D01*
X191880537Y-121854494D01*
X191939502Y-121744180D01*
X191975812Y-121624482D01*
X191988072Y-121500000D01*
X191985000Y-120935750D01*
X191826250Y-120777000D01*
X190627000Y-120777000D01*
X190373000Y-120777000D01*
X189173750Y-120777000D01*
X189015000Y-120935750D01*
X189011928Y-121500000D01*
X186638042Y-121500000D01*
X186735990Y-121353411D01*
X186847932Y-121083158D01*
X186905000Y-120796260D01*
X186905000Y-120503740D01*
X186847932Y-120216842D01*
X186735990Y-119946589D01*
X186573475Y-119703368D01*
X186366632Y-119496525D01*
X186192240Y-119380000D01*
X186366632Y-119263475D01*
X186573475Y-119056632D01*
X186735990Y-118813411D01*
X186847932Y-118543158D01*
X186905000Y-118256260D01*
X186905000Y-117963740D01*
X186847932Y-117676842D01*
X186735990Y-117406589D01*
X186573475Y-117163368D01*
X186366632Y-116956525D01*
X186192240Y-116840000D01*
X186366632Y-116723475D01*
X186573475Y-116516632D01*
X186735990Y-116273411D01*
X186847932Y-116003158D01*
X186905000Y-115716260D01*
X186905000Y-115423740D01*
X186847932Y-115136842D01*
X186735990Y-114866589D01*
X186573475Y-114623368D01*
X186366632Y-114416525D01*
X186192240Y-114300000D01*
X186366632Y-114183475D01*
X186573475Y-113976632D01*
X186735990Y-113733411D01*
X186847932Y-113463158D01*
X186905000Y-113176260D01*
X186905000Y-112883740D01*
X186847932Y-112596842D01*
X186735990Y-112326589D01*
X186573475Y-112083368D01*
X186366632Y-111876525D01*
X186192240Y-111760000D01*
X186366632Y-111643475D01*
X186573475Y-111436632D01*
X186735990Y-111193411D01*
X186847932Y-110923158D01*
X186905000Y-110636260D01*
X186905000Y-110343740D01*
X186847932Y-110056842D01*
X186735990Y-109786589D01*
X186573475Y-109543368D01*
X186366632Y-109336525D01*
X186192240Y-109220000D01*
X186366632Y-109103475D01*
X186573475Y-108896632D01*
X186735990Y-108653411D01*
X186847932Y-108383158D01*
X186905000Y-108096260D01*
X186905000Y-107803740D01*
X186847932Y-107516842D01*
X186735990Y-107246589D01*
X186573475Y-107003368D01*
X186366632Y-106796525D01*
X186192240Y-106680000D01*
X186366632Y-106563475D01*
X186573475Y-106356632D01*
X186735990Y-106113411D01*
X186847932Y-105843158D01*
X186905000Y-105556260D01*
X186905000Y-105263740D01*
X186847932Y-104976842D01*
X186735990Y-104706589D01*
X186573475Y-104463368D01*
X186366632Y-104256525D01*
X186192240Y-104140000D01*
X186366632Y-104023475D01*
X186573475Y-103816632D01*
X186735990Y-103573411D01*
X186847932Y-103303158D01*
X186905000Y-103016260D01*
X186905000Y-102723740D01*
X186847932Y-102436842D01*
X186735990Y-102166589D01*
X186573475Y-101923368D01*
X186366632Y-101716525D01*
X186192240Y-101600000D01*
X186366632Y-101483475D01*
X186573475Y-101276632D01*
X186735990Y-101033411D01*
X186847932Y-100763158D01*
X186905000Y-100476260D01*
X186905000Y-100183740D01*
X186847932Y-99896842D01*
X186735990Y-99626589D01*
X186573475Y-99383368D01*
X186366632Y-99176525D01*
X186192240Y-99060000D01*
X186366632Y-98943475D01*
X186573475Y-98736632D01*
X186696842Y-98552000D01*
X189547501Y-98552000D01*
X189547500Y-111882393D01*
X189346525Y-112083368D01*
X189184010Y-112326589D01*
X189072068Y-112596842D01*
X189015000Y-112883740D01*
X189015000Y-113176260D01*
X189072068Y-113463158D01*
X189184010Y-113733411D01*
X189346525Y-113976632D01*
X189553368Y-114183475D01*
X189727760Y-114300000D01*
X189553368Y-114416525D01*
X189346525Y-114623368D01*
X189184010Y-114866589D01*
X189072068Y-115136842D01*
X189015000Y-115423740D01*
X189015000Y-115716260D01*
X189072068Y-116003158D01*
X189184010Y-116273411D01*
X189346525Y-116516632D01*
X189553368Y-116723475D01*
X189727760Y-116840000D01*
X189553368Y-116956525D01*
X189346525Y-117163368D01*
X189184010Y-117406589D01*
X189072068Y-117676842D01*
X189015000Y-117963740D01*
X189015000Y-118256260D01*
X189072068Y-118543158D01*
X189184010Y-118813411D01*
X189346525Y-119056632D01*
X189478380Y-119188487D01*
X189405820Y-119210498D01*
X189295506Y-119269463D01*
X189198815Y-119348815D01*
X189119463Y-119445506D01*
X189060498Y-119555820D01*
X189024188Y-119675518D01*
X189011928Y-119800000D01*
X189015000Y-120364250D01*
X189173750Y-120523000D01*
X190373000Y-120523000D01*
X190373000Y-120503000D01*
X190627000Y-120503000D01*
X190627000Y-120523000D01*
X191826250Y-120523000D01*
X191985000Y-120364250D01*
X191988072Y-119800000D01*
X191975812Y-119675518D01*
X191939502Y-119555820D01*
X191880537Y-119445506D01*
X191801185Y-119348815D01*
X191704494Y-119269463D01*
X191594180Y-119210498D01*
X191521620Y-119188487D01*
X191653475Y-119056632D01*
X191815990Y-118813411D01*
X191927932Y-118543158D01*
X191985000Y-118256260D01*
X191985000Y-117963740D01*
X191927932Y-117676842D01*
X191815990Y-117406589D01*
X191653475Y-117163368D01*
X191446632Y-116956525D01*
X191272240Y-116840000D01*
X191446632Y-116723475D01*
X191653475Y-116516632D01*
X191815990Y-116273411D01*
X191927932Y-116003158D01*
X191985000Y-115716260D01*
X191985000Y-115423740D01*
X191927932Y-115136842D01*
X191815990Y-114866589D01*
X191653475Y-114623368D01*
X191446632Y-114416525D01*
X191272240Y-114300000D01*
X191446632Y-114183475D01*
X191653475Y-113976632D01*
X191815990Y-113733411D01*
X191927932Y-113463158D01*
X191985000Y-113176260D01*
X191985000Y-112883740D01*
X191927932Y-112596842D01*
X191815990Y-112326589D01*
X191653475Y-112083368D01*
X191452500Y-111882393D01*
X191452500Y-100750000D01*
X196631928Y-100750000D01*
X196635000Y-101314250D01*
X196793750Y-101473000D01*
X197993000Y-101473000D01*
X197993000Y-100273750D01*
X197834250Y-100115000D01*
X197270000Y-100111928D01*
X197145518Y-100124188D01*
X197025820Y-100160498D01*
X196915506Y-100219463D01*
X196818815Y-100298815D01*
X196739463Y-100395506D01*
X196680498Y-100505820D01*
X196644188Y-100625518D01*
X196631928Y-100750000D01*
X191452500Y-100750000D01*
X191452500Y-98552000D01*
X231750001Y-98552000D01*
X231750001Y-100245318D01*
X231573158Y-100172068D01*
X231286260Y-100115000D01*
X230993740Y-100115000D01*
X230706842Y-100172068D01*
X230436589Y-100284010D01*
X230193368Y-100446525D01*
X229986525Y-100653368D01*
X229870000Y-100827760D01*
X229753475Y-100653368D01*
X229546632Y-100446525D01*
X229303411Y-100284010D01*
X229033158Y-100172068D01*
X228746260Y-100115000D01*
X228453740Y-100115000D01*
X228166842Y-100172068D01*
X227896589Y-100284010D01*
X227653368Y-100446525D01*
X227446525Y-100653368D01*
X227330000Y-100827760D01*
X227213475Y-100653368D01*
X227006632Y-100446525D01*
X226763411Y-100284010D01*
X226493158Y-100172068D01*
X226206260Y-100115000D01*
X225913740Y-100115000D01*
X225626842Y-100172068D01*
X225356589Y-100284010D01*
X225113368Y-100446525D01*
X224906525Y-100653368D01*
X224790000Y-100827760D01*
X224673475Y-100653368D01*
X224466632Y-100446525D01*
X224223411Y-100284010D01*
X223953158Y-100172068D01*
X223666260Y-100115000D01*
X223373740Y-100115000D01*
X223086842Y-100172068D01*
X222816589Y-100284010D01*
X222573368Y-100446525D01*
X222366525Y-100653368D01*
X222250000Y-100827760D01*
X222133475Y-100653368D01*
X221926632Y-100446525D01*
X221683411Y-100284010D01*
X221413158Y-100172068D01*
X221126260Y-100115000D01*
X220833740Y-100115000D01*
X220546842Y-100172068D01*
X220276589Y-100284010D01*
X220033368Y-100446525D01*
X219826525Y-100653368D01*
X219710000Y-100827760D01*
X219593475Y-100653368D01*
X219386632Y-100446525D01*
X219143411Y-100284010D01*
X218873158Y-100172068D01*
X218586260Y-100115000D01*
X218293740Y-100115000D01*
X218006842Y-100172068D01*
X217736589Y-100284010D01*
X217493368Y-100446525D01*
X217286525Y-100653368D01*
X217170000Y-100827760D01*
X217053475Y-100653368D01*
X216846632Y-100446525D01*
X216603411Y-100284010D01*
X216333158Y-100172068D01*
X216046260Y-100115000D01*
X215753740Y-100115000D01*
X215466842Y-100172068D01*
X215196589Y-100284010D01*
X214953368Y-100446525D01*
X214746525Y-100653368D01*
X214630000Y-100827760D01*
X214513475Y-100653368D01*
X214306632Y-100446525D01*
X214063411Y-100284010D01*
X213793158Y-100172068D01*
X213506260Y-100115000D01*
X213213740Y-100115000D01*
X212926842Y-100172068D01*
X212656589Y-100284010D01*
X212413368Y-100446525D01*
X212206525Y-100653368D01*
X212090000Y-100827760D01*
X211973475Y-100653368D01*
X211766632Y-100446525D01*
X211523411Y-100284010D01*
X211253158Y-100172068D01*
X210966260Y-100115000D01*
X210673740Y-100115000D01*
X210386842Y-100172068D01*
X210116589Y-100284010D01*
X209873368Y-100446525D01*
X209666525Y-100653368D01*
X209550000Y-100827760D01*
X209433475Y-100653368D01*
X209226632Y-100446525D01*
X208983411Y-100284010D01*
X208713158Y-100172068D01*
X208426260Y-100115000D01*
X208133740Y-100115000D01*
X207846842Y-100172068D01*
X207576589Y-100284010D01*
X207333368Y-100446525D01*
X207126525Y-100653368D01*
X207010000Y-100827760D01*
X206893475Y-100653368D01*
X206686632Y-100446525D01*
X206443411Y-100284010D01*
X206173158Y-100172068D01*
X205886260Y-100115000D01*
X205593740Y-100115000D01*
X205306842Y-100172068D01*
X205036589Y-100284010D01*
X204793368Y-100446525D01*
X204586525Y-100653368D01*
X204470000Y-100827760D01*
X204353475Y-100653368D01*
X204146632Y-100446525D01*
X203903411Y-100284010D01*
X203633158Y-100172068D01*
X203346260Y-100115000D01*
X203053740Y-100115000D01*
X202766842Y-100172068D01*
X202496589Y-100284010D01*
X202253368Y-100446525D01*
X202046525Y-100653368D01*
X201930000Y-100827760D01*
X201813475Y-100653368D01*
X201606632Y-100446525D01*
X201363411Y-100284010D01*
X201093158Y-100172068D01*
X200806260Y-100115000D01*
X200513740Y-100115000D01*
X200226842Y-100172068D01*
X199956589Y-100284010D01*
X199713368Y-100446525D01*
X199581513Y-100578380D01*
X199559502Y-100505820D01*
X199500537Y-100395506D01*
X199421185Y-100298815D01*
X199324494Y-100219463D01*
X199214180Y-100160498D01*
X199094482Y-100124188D01*
X198970000Y-100111928D01*
X198405750Y-100115000D01*
X198247000Y-100273750D01*
X198247000Y-101473000D01*
X198267000Y-101473000D01*
X198267000Y-101727000D01*
X198247000Y-101727000D01*
X198247000Y-101747000D01*
X197993000Y-101747000D01*
X197993000Y-101727000D01*
X196793750Y-101727000D01*
X196635000Y-101885750D01*
X196633235Y-102210000D01*
X194342419Y-102210000D01*
X194310000Y-102206807D01*
X194277581Y-102210000D01*
X194180617Y-102219550D01*
X194056207Y-102257290D01*
X193941550Y-102318575D01*
X193841052Y-102401052D01*
X193758575Y-102501550D01*
X193697290Y-102616207D01*
X193659550Y-102740617D01*
X193646807Y-102870000D01*
X193650000Y-102902419D01*
X193650001Y-122530000D01*
X160680000Y-122530000D01*
X160680000Y-121006890D01*
X161118524Y-121006890D01*
X161163175Y-121154099D01*
X161288359Y-121416920D01*
X161462412Y-121650269D01*
X161678645Y-121845178D01*
X161928748Y-121994157D01*
X162203109Y-122091481D01*
X162433000Y-121970814D01*
X162433000Y-120777000D01*
X162687000Y-120777000D01*
X162687000Y-121970814D01*
X162916891Y-122091481D01*
X163191252Y-121994157D01*
X163441355Y-121845178D01*
X163657588Y-121650269D01*
X163831641Y-121416920D01*
X163956825Y-121154099D01*
X164001476Y-121006890D01*
X163880155Y-120777000D01*
X162687000Y-120777000D01*
X162433000Y-120777000D01*
X161239845Y-120777000D01*
X161118524Y-121006890D01*
X160680000Y-121006890D01*
X160680000Y-98552000D01*
X161283158Y-98552000D01*
X161406525Y-98736632D01*
G36*
X193650001Y-92677571D02*
G01*
X193646807Y-92710000D01*
X193659550Y-92839383D01*
X193697290Y-92963793D01*
X193758575Y-93078450D01*
X193841052Y-93178948D01*
X193941550Y-93261425D01*
X194056207Y-93322710D01*
X194180617Y-93360450D01*
X194277581Y-93370000D01*
X194310000Y-93373193D01*
X194342419Y-93370000D01*
X196633235Y-93370000D01*
X196635000Y-93694250D01*
X196793750Y-93853000D01*
X197993000Y-93853000D01*
X197993000Y-93833000D01*
X198247000Y-93833000D01*
X198247000Y-93853000D01*
X198267000Y-93853000D01*
X198267000Y-94107000D01*
X198247000Y-94107000D01*
X198247000Y-95306250D01*
X198405750Y-95465000D01*
X198970000Y-95468072D01*
X199094482Y-95455812D01*
X199214180Y-95419502D01*
X199324494Y-95360537D01*
X199421185Y-95281185D01*
X199500537Y-95184494D01*
X199559502Y-95074180D01*
X199581513Y-95001620D01*
X199713368Y-95133475D01*
X199956589Y-95295990D01*
X200226842Y-95407932D01*
X200513740Y-95465000D01*
X200806260Y-95465000D01*
X201093158Y-95407932D01*
X201363411Y-95295990D01*
X201606632Y-95133475D01*
X201813475Y-94926632D01*
X201930000Y-94752240D01*
X202046525Y-94926632D01*
X202253368Y-95133475D01*
X202496589Y-95295990D01*
X202766842Y-95407932D01*
X203053740Y-95465000D01*
X203346260Y-95465000D01*
X203633158Y-95407932D01*
X203903411Y-95295990D01*
X204146632Y-95133475D01*
X204353475Y-94926632D01*
X204470000Y-94752240D01*
X204586525Y-94926632D01*
X204793368Y-95133475D01*
X205036589Y-95295990D01*
X205306842Y-95407932D01*
X205593740Y-95465000D01*
X205886260Y-95465000D01*
X206173158Y-95407932D01*
X206443411Y-95295990D01*
X206686632Y-95133475D01*
X206893475Y-94926632D01*
X207010000Y-94752240D01*
X207126525Y-94926632D01*
X207333368Y-95133475D01*
X207576589Y-95295990D01*
X207846842Y-95407932D01*
X208133740Y-95465000D01*
X208426260Y-95465000D01*
X208713158Y-95407932D01*
X208983411Y-95295990D01*
X209226632Y-95133475D01*
X209433475Y-94926632D01*
X209550000Y-94752240D01*
X209666525Y-94926632D01*
X209873368Y-95133475D01*
X210116589Y-95295990D01*
X210386842Y-95407932D01*
X210673740Y-95465000D01*
X210966260Y-95465000D01*
X211253158Y-95407932D01*
X211523411Y-95295990D01*
X211766632Y-95133475D01*
X211973475Y-94926632D01*
X212090000Y-94752240D01*
X212206525Y-94926632D01*
X212413368Y-95133475D01*
X212656589Y-95295990D01*
X212926842Y-95407932D01*
X213213740Y-95465000D01*
X213506260Y-95465000D01*
X213793158Y-95407932D01*
X214063411Y-95295990D01*
X214306632Y-95133475D01*
X214513475Y-94926632D01*
X214630000Y-94752240D01*
X214746525Y-94926632D01*
X214953368Y-95133475D01*
X215196589Y-95295990D01*
X215466842Y-95407932D01*
X215753740Y-95465000D01*
X216046260Y-95465000D01*
X216333158Y-95407932D01*
X216603411Y-95295990D01*
X216846632Y-95133475D01*
X217053475Y-94926632D01*
X217170000Y-94752240D01*
X217286525Y-94926632D01*
X217493368Y-95133475D01*
X217736589Y-95295990D01*
X218006842Y-95407932D01*
X218293740Y-95465000D01*
X218586260Y-95465000D01*
X218873158Y-95407932D01*
X219143411Y-95295990D01*
X219386632Y-95133475D01*
X219593475Y-94926632D01*
X219710000Y-94752240D01*
X219826525Y-94926632D01*
X220033368Y-95133475D01*
X220276589Y-95295990D01*
X220546842Y-95407932D01*
X220833740Y-95465000D01*
X221126260Y-95465000D01*
X221413158Y-95407932D01*
X221683411Y-95295990D01*
X221926632Y-95133475D01*
X222133475Y-94926632D01*
X222250000Y-94752240D01*
X222366525Y-94926632D01*
X222573368Y-95133475D01*
X222816589Y-95295990D01*
X223086842Y-95407932D01*
X223373740Y-95465000D01*
X223666260Y-95465000D01*
X223953158Y-95407932D01*
X224223411Y-95295990D01*
X224466632Y-95133475D01*
X224673475Y-94926632D01*
X224790000Y-94752240D01*
X224906525Y-94926632D01*
X225113368Y-95133475D01*
X225356589Y-95295990D01*
X225626842Y-95407932D01*
X225913740Y-95465000D01*
X226206260Y-95465000D01*
X226493158Y-95407932D01*
X226763411Y-95295990D01*
X227006632Y-95133475D01*
X227213475Y-94926632D01*
X227330000Y-94752240D01*
X227446525Y-94926632D01*
X227653368Y-95133475D01*
X227896589Y-95295990D01*
X228166842Y-95407932D01*
X228453740Y-95465000D01*
X228746260Y-95465000D01*
X229033158Y-95407932D01*
X229303411Y-95295990D01*
X229546632Y-95133475D01*
X229753475Y-94926632D01*
X229870000Y-94752240D01*
X229986525Y-94926632D01*
X230193368Y-95133475D01*
X230436589Y-95295990D01*
X230706842Y-95407932D01*
X230993740Y-95465000D01*
X231286260Y-95465000D01*
X231573158Y-95407932D01*
X231750000Y-95334682D01*
X231750000Y-97028000D01*
X188912500Y-97028000D01*
X188912500Y-94830000D01*
X196631928Y-94830000D01*
X196644188Y-94954482D01*
X196680498Y-95074180D01*
X196739463Y-95184494D01*
X196818815Y-95281185D01*
X196915506Y-95360537D01*
X197025820Y-95419502D01*
X197145518Y-95455812D01*
X197270000Y-95468072D01*
X197834250Y-95465000D01*
X197993000Y-95306250D01*
X197993000Y-94107000D01*
X196793750Y-94107000D01*
X196635000Y-94265750D01*
X196631928Y-94830000D01*
X188912500Y-94830000D01*
X188912500Y-85484538D01*
X190358966Y-84038072D01*
X191350000Y-84038072D01*
X191474482Y-84025812D01*
X191594180Y-83989502D01*
X191704494Y-83930537D01*
X191801185Y-83851185D01*
X191880537Y-83754494D01*
X191939502Y-83644180D01*
X191975812Y-83524482D01*
X191988072Y-83400000D01*
X191988072Y-81700000D01*
X191975812Y-81575518D01*
X191939502Y-81455820D01*
X191880537Y-81345506D01*
X191801185Y-81248815D01*
X191704494Y-81169463D01*
X191594180Y-81110498D01*
X191521620Y-81088487D01*
X191653475Y-80956632D01*
X191815990Y-80713411D01*
X191927932Y-80443158D01*
X191985000Y-80156260D01*
X191985000Y-79863740D01*
X191927932Y-79576842D01*
X191815990Y-79306589D01*
X191653475Y-79063368D01*
X191446632Y-78856525D01*
X191272240Y-78740000D01*
X191446632Y-78623475D01*
X191653475Y-78416632D01*
X191815990Y-78173411D01*
X191927932Y-77903158D01*
X191985000Y-77616260D01*
X191985000Y-77323740D01*
X191927932Y-77036842D01*
X191815990Y-76766589D01*
X191653475Y-76523368D01*
X191446632Y-76316525D01*
X191264466Y-76194805D01*
X191381355Y-76125178D01*
X191597588Y-75930269D01*
X191771641Y-75696920D01*
X191896825Y-75434099D01*
X191941476Y-75286890D01*
X191820155Y-75057000D01*
X190627000Y-75057000D01*
X190627000Y-75077000D01*
X190373000Y-75077000D01*
X190373000Y-75057000D01*
X189179845Y-75057000D01*
X189058524Y-75286890D01*
X189103175Y-75434099D01*
X189228359Y-75696920D01*
X189402412Y-75930269D01*
X189618645Y-76125178D01*
X189735534Y-76194805D01*
X189553368Y-76316525D01*
X189346525Y-76523368D01*
X189184010Y-76766589D01*
X189072068Y-77036842D01*
X189015000Y-77323740D01*
X189015000Y-77616260D01*
X189072068Y-77903158D01*
X189184010Y-78173411D01*
X189346525Y-78416632D01*
X189553368Y-78623475D01*
X189727760Y-78740000D01*
X189553368Y-78856525D01*
X189346525Y-79063368D01*
X189184010Y-79306589D01*
X189072068Y-79576842D01*
X189015000Y-79863740D01*
X189015000Y-80156260D01*
X189072068Y-80443158D01*
X189184010Y-80713411D01*
X189346525Y-80956632D01*
X189478380Y-81088487D01*
X189405820Y-81110498D01*
X189295506Y-81169463D01*
X189198815Y-81248815D01*
X189119463Y-81345506D01*
X189060498Y-81455820D01*
X189024188Y-81575518D01*
X189011928Y-81700000D01*
X189011928Y-82691034D01*
X187319569Y-84383393D01*
X187283222Y-84413222D01*
X187164194Y-84558259D01*
X187075748Y-84723732D01*
X187021283Y-84903277D01*
X187021283Y-84903278D01*
X187002892Y-85090000D01*
X187007500Y-85136785D01*
X187007501Y-97028000D01*
X186696842Y-97028000D01*
X186573475Y-96843368D01*
X186366632Y-96636525D01*
X186192240Y-96520000D01*
X186366632Y-96403475D01*
X186573475Y-96196632D01*
X186735990Y-95953411D01*
X186847932Y-95683158D01*
X186905000Y-95396260D01*
X186905000Y-95103740D01*
X186847932Y-94816842D01*
X186735990Y-94546589D01*
X186573475Y-94303368D01*
X186366632Y-94096525D01*
X186192240Y-93980000D01*
X186366632Y-93863475D01*
X186573475Y-93656632D01*
X186735990Y-93413411D01*
X186847932Y-93143158D01*
X186905000Y-92856260D01*
X186905000Y-92563740D01*
X186847932Y-92276842D01*
X186735990Y-92006589D01*
X186573475Y-91763368D01*
X186366632Y-91556525D01*
X186192240Y-91440000D01*
X186366632Y-91323475D01*
X186573475Y-91116632D01*
X186735990Y-90873411D01*
X186847932Y-90603158D01*
X186905000Y-90316260D01*
X186905000Y-90023740D01*
X186847932Y-89736842D01*
X186735990Y-89466589D01*
X186573475Y-89223368D01*
X186366632Y-89016525D01*
X186192240Y-88900000D01*
X186366632Y-88783475D01*
X186573475Y-88576632D01*
X186735990Y-88333411D01*
X186847932Y-88063158D01*
X186905000Y-87776260D01*
X186905000Y-87483740D01*
X186847932Y-87196842D01*
X186735990Y-86926589D01*
X186573475Y-86683368D01*
X186366632Y-86476525D01*
X186192240Y-86360000D01*
X186366632Y-86243475D01*
X186573475Y-86036632D01*
X186735990Y-85793411D01*
X186847932Y-85523158D01*
X186905000Y-85236260D01*
X186905000Y-84943740D01*
X186847932Y-84656842D01*
X186735990Y-84386589D01*
X186573475Y-84143368D01*
X186366632Y-83936525D01*
X186192240Y-83820000D01*
X186366632Y-83703475D01*
X186573475Y-83496632D01*
X186735990Y-83253411D01*
X186847932Y-82983158D01*
X186905000Y-82696260D01*
X186905000Y-82403740D01*
X186847932Y-82116842D01*
X186735990Y-81846589D01*
X186573475Y-81603368D01*
X186366632Y-81396525D01*
X186192240Y-81280000D01*
X186366632Y-81163475D01*
X186573475Y-80956632D01*
X186735990Y-80713411D01*
X186847932Y-80443158D01*
X186905000Y-80156260D01*
X186905000Y-79863740D01*
X186847932Y-79576842D01*
X186735990Y-79306589D01*
X186573475Y-79063368D01*
X186366632Y-78856525D01*
X186192240Y-78740000D01*
X186366632Y-78623475D01*
X186573475Y-78416632D01*
X186735990Y-78173411D01*
X186847932Y-77903158D01*
X186905000Y-77616260D01*
X186905000Y-77323740D01*
X186847932Y-77036842D01*
X186735990Y-76766589D01*
X186573475Y-76523368D01*
X186441620Y-76391513D01*
X186514180Y-76369502D01*
X186624494Y-76310537D01*
X186721185Y-76231185D01*
X186800537Y-76134494D01*
X186859502Y-76024180D01*
X186895812Y-75904482D01*
X186908072Y-75780000D01*
X186908072Y-74573110D01*
X189058524Y-74573110D01*
X189179845Y-74803000D01*
X190373000Y-74803000D01*
X190373000Y-73609186D01*
X190627000Y-73609186D01*
X190627000Y-74803000D01*
X191820155Y-74803000D01*
X191941476Y-74573110D01*
X191896825Y-74425901D01*
X191771641Y-74163080D01*
X191597588Y-73929731D01*
X191381355Y-73734822D01*
X191131252Y-73585843D01*
X190856891Y-73488519D01*
X190627000Y-73609186D01*
X190373000Y-73609186D01*
X190143109Y-73488519D01*
X189868748Y-73585843D01*
X189618645Y-73734822D01*
X189402412Y-73929731D01*
X189228359Y-74163080D01*
X189103175Y-74425901D01*
X189058524Y-74573110D01*
X186908072Y-74573110D01*
X186908072Y-74080000D01*
X186895812Y-73955518D01*
X186859502Y-73835820D01*
X186800537Y-73725506D01*
X186721185Y-73628815D01*
X186624494Y-73549463D01*
X186514180Y-73490498D01*
X186394482Y-73454188D01*
X186270000Y-73441928D01*
X184570000Y-73441928D01*
X184445518Y-73454188D01*
X184325820Y-73490498D01*
X184215506Y-73549463D01*
X184118815Y-73628815D01*
X184039463Y-73725506D01*
X183980498Y-73835820D01*
X183944188Y-73955518D01*
X183931928Y-74080000D01*
X183931928Y-75780000D01*
X183944188Y-75904482D01*
X183980498Y-76024180D01*
X184039463Y-76134494D01*
X184118815Y-76231185D01*
X184215506Y-76310537D01*
X184325820Y-76369502D01*
X184398380Y-76391513D01*
X184266525Y-76523368D01*
X184104010Y-76766589D01*
X183992068Y-77036842D01*
X183935000Y-77323740D01*
X183935000Y-77616260D01*
X183992068Y-77903158D01*
X184104010Y-78173411D01*
X184266525Y-78416632D01*
X184473368Y-78623475D01*
X184647760Y-78740000D01*
X184473368Y-78856525D01*
X184266525Y-79063368D01*
X184104010Y-79306589D01*
X183992068Y-79576842D01*
X183935000Y-79863740D01*
X183935000Y-80156260D01*
X183992068Y-80443158D01*
X184104010Y-80713411D01*
X184266525Y-80956632D01*
X184473368Y-81163475D01*
X184647760Y-81280000D01*
X184473368Y-81396525D01*
X184266525Y-81603368D01*
X184104010Y-81846589D01*
X183992068Y-82116842D01*
X183935000Y-82403740D01*
X183935000Y-82696260D01*
X183992068Y-82983158D01*
X184104010Y-83253411D01*
X184266525Y-83496632D01*
X184473368Y-83703475D01*
X184647760Y-83820000D01*
X184473368Y-83936525D01*
X184266525Y-84143368D01*
X184104010Y-84386589D01*
X183992068Y-84656842D01*
X183935000Y-84943740D01*
X183935000Y-85236260D01*
X183992068Y-85523158D01*
X184104010Y-85793411D01*
X184266525Y-86036632D01*
X184473368Y-86243475D01*
X184647760Y-86360000D01*
X184473368Y-86476525D01*
X184266525Y-86683368D01*
X184104010Y-86926589D01*
X183992068Y-87196842D01*
X183935000Y-87483740D01*
X183935000Y-87776260D01*
X183992068Y-88063158D01*
X184104010Y-88333411D01*
X184266525Y-88576632D01*
X184473368Y-88783475D01*
X184647760Y-88900000D01*
X184473368Y-89016525D01*
X184266525Y-89223368D01*
X184104010Y-89466589D01*
X183992068Y-89736842D01*
X183935000Y-90023740D01*
X183935000Y-90316260D01*
X183992068Y-90603158D01*
X184104010Y-90873411D01*
X184266525Y-91116632D01*
X184473368Y-91323475D01*
X184647760Y-91440000D01*
X184473368Y-91556525D01*
X184266525Y-91763368D01*
X184104010Y-92006589D01*
X183992068Y-92276842D01*
X183935000Y-92563740D01*
X183935000Y-92856260D01*
X183992068Y-93143158D01*
X184104010Y-93413411D01*
X184266525Y-93656632D01*
X184473368Y-93863475D01*
X184647760Y-93980000D01*
X184473368Y-94096525D01*
X184266525Y-94303368D01*
X184104010Y-94546589D01*
X183992068Y-94816842D01*
X183935000Y-95103740D01*
X183935000Y-95396260D01*
X183992068Y-95683158D01*
X184104010Y-95953411D01*
X184266525Y-96196632D01*
X184473368Y-96403475D01*
X184647760Y-96520000D01*
X184473368Y-96636525D01*
X184266525Y-96843368D01*
X184143158Y-97028000D01*
X163836842Y-97028000D01*
X163713475Y-96843368D01*
X163506632Y-96636525D01*
X163332240Y-96520000D01*
X163506632Y-96403475D01*
X163713475Y-96196632D01*
X163875990Y-95953411D01*
X163987932Y-95683158D01*
X164045000Y-95396260D01*
X164045000Y-95103740D01*
X163987932Y-94816842D01*
X163875990Y-94546589D01*
X163713475Y-94303368D01*
X163506632Y-94096525D01*
X163332240Y-93980000D01*
X163506632Y-93863475D01*
X163713475Y-93656632D01*
X163875990Y-93413411D01*
X163987932Y-93143158D01*
X164045000Y-92856260D01*
X164045000Y-92563740D01*
X163987932Y-92276842D01*
X163875990Y-92006589D01*
X163713475Y-91763368D01*
X163506632Y-91556525D01*
X163332240Y-91440000D01*
X163506632Y-91323475D01*
X163713475Y-91116632D01*
X163875990Y-90873411D01*
X163987932Y-90603158D01*
X164045000Y-90316260D01*
X164045000Y-90023740D01*
X163987932Y-89736842D01*
X163875990Y-89466589D01*
X163713475Y-89223368D01*
X163506632Y-89016525D01*
X163332240Y-88900000D01*
X163506632Y-88783475D01*
X163713475Y-88576632D01*
X163875990Y-88333411D01*
X163987932Y-88063158D01*
X164045000Y-87776260D01*
X164045000Y-87483740D01*
X163987932Y-87196842D01*
X163875990Y-86926589D01*
X163713475Y-86683368D01*
X163506632Y-86476525D01*
X163332240Y-86360000D01*
X163506632Y-86243475D01*
X163713475Y-86036632D01*
X163875990Y-85793411D01*
X163987932Y-85523158D01*
X164045000Y-85236260D01*
X164045000Y-84943740D01*
X163987932Y-84656842D01*
X163875990Y-84386589D01*
X163713475Y-84143368D01*
X163506632Y-83936525D01*
X163332240Y-83820000D01*
X163506632Y-83703475D01*
X163713475Y-83496632D01*
X163875990Y-83253411D01*
X163987932Y-82983158D01*
X164045000Y-82696260D01*
X164045000Y-82403740D01*
X163987932Y-82116842D01*
X163875990Y-81846589D01*
X163713475Y-81603368D01*
X163506632Y-81396525D01*
X163332240Y-81280000D01*
X163506632Y-81163475D01*
X163713475Y-80956632D01*
X163875990Y-80713411D01*
X163987932Y-80443158D01*
X164045000Y-80156260D01*
X164045000Y-79863740D01*
X163987932Y-79576842D01*
X163875990Y-79306589D01*
X163713475Y-79063368D01*
X163506632Y-78856525D01*
X163332240Y-78740000D01*
X163506632Y-78623475D01*
X163713475Y-78416632D01*
X163875990Y-78173411D01*
X163987932Y-77903158D01*
X164045000Y-77616260D01*
X164045000Y-77323740D01*
X163987932Y-77036842D01*
X163875990Y-76766589D01*
X163713475Y-76523368D01*
X163581620Y-76391513D01*
X163654180Y-76369502D01*
X163764494Y-76310537D01*
X163861185Y-76231185D01*
X163940537Y-76134494D01*
X163999502Y-76024180D01*
X164035812Y-75904482D01*
X164048072Y-75780000D01*
X164045000Y-75215750D01*
X163886250Y-75057000D01*
X162687000Y-75057000D01*
X162687000Y-75077000D01*
X162433000Y-75077000D01*
X162433000Y-75057000D01*
X161233750Y-75057000D01*
X161075000Y-75215750D01*
X161071928Y-75780000D01*
X161084188Y-75904482D01*
X161120498Y-76024180D01*
X161179463Y-76134494D01*
X161258815Y-76231185D01*
X161355506Y-76310537D01*
X161465820Y-76369502D01*
X161538380Y-76391513D01*
X161406525Y-76523368D01*
X161244010Y-76766589D01*
X161132068Y-77036842D01*
X161075000Y-77323740D01*
X161075000Y-77616260D01*
X161132068Y-77903158D01*
X161244010Y-78173411D01*
X161406525Y-78416632D01*
X161613368Y-78623475D01*
X161787760Y-78740000D01*
X161613368Y-78856525D01*
X161406525Y-79063368D01*
X161244010Y-79306589D01*
X161132068Y-79576842D01*
X161075000Y-79863740D01*
X161075000Y-80156260D01*
X161132068Y-80443158D01*
X161244010Y-80713411D01*
X161406525Y-80956632D01*
X161613368Y-81163475D01*
X161787760Y-81280000D01*
X161613368Y-81396525D01*
X161406525Y-81603368D01*
X161244010Y-81846589D01*
X161132068Y-82116842D01*
X161075000Y-82403740D01*
X161075000Y-82696260D01*
X161132068Y-82983158D01*
X161244010Y-83253411D01*
X161406525Y-83496632D01*
X161613368Y-83703475D01*
X161787760Y-83820000D01*
X161613368Y-83936525D01*
X161406525Y-84143368D01*
X161244010Y-84386589D01*
X161132068Y-84656842D01*
X161075000Y-84943740D01*
X161075000Y-85236260D01*
X161132068Y-85523158D01*
X161244010Y-85793411D01*
X161406525Y-86036632D01*
X161613368Y-86243475D01*
X161787760Y-86360000D01*
X161613368Y-86476525D01*
X161406525Y-86683368D01*
X161244010Y-86926589D01*
X161132068Y-87196842D01*
X161075000Y-87483740D01*
X161075000Y-87776260D01*
X161132068Y-88063158D01*
X161244010Y-88333411D01*
X161406525Y-88576632D01*
X161613368Y-88783475D01*
X161787760Y-88900000D01*
X161613368Y-89016525D01*
X161406525Y-89223368D01*
X161244010Y-89466589D01*
X161132068Y-89736842D01*
X161075000Y-90023740D01*
X161075000Y-90316260D01*
X161132068Y-90603158D01*
X161244010Y-90873411D01*
X161406525Y-91116632D01*
X161613368Y-91323475D01*
X161787760Y-91440000D01*
X161613368Y-91556525D01*
X161406525Y-91763368D01*
X161244010Y-92006589D01*
X161132068Y-92276842D01*
X161075000Y-92563740D01*
X161075000Y-92856260D01*
X161132068Y-93143158D01*
X161244010Y-93413411D01*
X161406525Y-93656632D01*
X161613368Y-93863475D01*
X161787760Y-93980000D01*
X161613368Y-94096525D01*
X161406525Y-94303368D01*
X161244010Y-94546589D01*
X161132068Y-94816842D01*
X161075000Y-95103740D01*
X161075000Y-95396260D01*
X161132068Y-95683158D01*
X161244010Y-95953411D01*
X161406525Y-96196632D01*
X161613368Y-96403475D01*
X161787760Y-96520000D01*
X161613368Y-96636525D01*
X161406525Y-96843368D01*
X161283158Y-97028000D01*
X160680000Y-97028000D01*
X160680000Y-74080000D01*
X161071928Y-74080000D01*
X161075000Y-74644250D01*
X161233750Y-74803000D01*
X162433000Y-74803000D01*
X162433000Y-73603750D01*
X162687000Y-73603750D01*
X162687000Y-74803000D01*
X163886250Y-74803000D01*
X164045000Y-74644250D01*
X164048072Y-74080000D01*
X164035812Y-73955518D01*
X163999502Y-73835820D01*
X163940537Y-73725506D01*
X163861185Y-73628815D01*
X163764494Y-73549463D01*
X163654180Y-73490498D01*
X163534482Y-73454188D01*
X163410000Y-73441928D01*
X162845750Y-73445000D01*
X162687000Y-73603750D01*
X162433000Y-73603750D01*
X162274250Y-73445000D01*
X161710000Y-73441928D01*
X161585518Y-73454188D01*
X161465820Y-73490498D01*
X161355506Y-73549463D01*
X161258815Y-73628815D01*
X161179463Y-73725506D01*
X161120498Y-73835820D01*
X161084188Y-73955518D01*
X161071928Y-74080000D01*
X160680000Y-74080000D01*
X160680000Y-73050000D01*
X193650000Y-73050000D01*
X193650001Y-92677571D01*
G37*
X193650001Y-92677571D02*
X193646807Y-92710000D01*
X193659550Y-92839383D01*
X193697290Y-92963793D01*
X193758575Y-93078450D01*
X193841052Y-93178948D01*
X193941550Y-93261425D01*
X194056207Y-93322710D01*
X194180617Y-93360450D01*
X194277581Y-93370000D01*
X194310000Y-93373193D01*
X194342419Y-93370000D01*
X196633235Y-93370000D01*
X196635000Y-93694250D01*
X196793750Y-93853000D01*
X197993000Y-93853000D01*
X197993000Y-93833000D01*
X198247000Y-93833000D01*
X198247000Y-93853000D01*
X198267000Y-93853000D01*
X198267000Y-94107000D01*
X198247000Y-94107000D01*
X198247000Y-95306250D01*
X198405750Y-95465000D01*
X198970000Y-95468072D01*
X199094482Y-95455812D01*
X199214180Y-95419502D01*
X199324494Y-95360537D01*
X199421185Y-95281185D01*
X199500537Y-95184494D01*
X199559502Y-95074180D01*
X199581513Y-95001620D01*
X199713368Y-95133475D01*
X199956589Y-95295990D01*
X200226842Y-95407932D01*
X200513740Y-95465000D01*
X200806260Y-95465000D01*
X201093158Y-95407932D01*
X201363411Y-95295990D01*
X201606632Y-95133475D01*
X201813475Y-94926632D01*
X201930000Y-94752240D01*
X202046525Y-94926632D01*
X202253368Y-95133475D01*
X202496589Y-95295990D01*
X202766842Y-95407932D01*
X203053740Y-95465000D01*
X203346260Y-95465000D01*
X203633158Y-95407932D01*
X203903411Y-95295990D01*
X204146632Y-95133475D01*
X204353475Y-94926632D01*
X204470000Y-94752240D01*
X204586525Y-94926632D01*
X204793368Y-95133475D01*
X205036589Y-95295990D01*
X205306842Y-95407932D01*
X205593740Y-95465000D01*
X205886260Y-95465000D01*
X206173158Y-95407932D01*
X206443411Y-95295990D01*
X206686632Y-95133475D01*
X206893475Y-94926632D01*
X207010000Y-94752240D01*
X207126525Y-94926632D01*
X207333368Y-95133475D01*
X207576589Y-95295990D01*
X207846842Y-95407932D01*
X208133740Y-95465000D01*
X208426260Y-95465000D01*
X208713158Y-95407932D01*
X208983411Y-95295990D01*
X209226632Y-95133475D01*
X209433475Y-94926632D01*
X209550000Y-94752240D01*
X209666525Y-94926632D01*
X209873368Y-95133475D01*
X210116589Y-95295990D01*
X210386842Y-95407932D01*
X210673740Y-95465000D01*
X210966260Y-95465000D01*
X211253158Y-95407932D01*
X211523411Y-95295990D01*
X211766632Y-95133475D01*
X211973475Y-94926632D01*
X212090000Y-94752240D01*
X212206525Y-94926632D01*
X212413368Y-95133475D01*
X212656589Y-95295990D01*
X212926842Y-95407932D01*
X213213740Y-95465000D01*
X213506260Y-95465000D01*
X213793158Y-95407932D01*
X214063411Y-95295990D01*
X214306632Y-95133475D01*
X214513475Y-94926632D01*
X214630000Y-94752240D01*
X214746525Y-94926632D01*
X214953368Y-95133475D01*
X215196589Y-95295990D01*
X215466842Y-95407932D01*
X215753740Y-95465000D01*
X216046260Y-95465000D01*
X216333158Y-95407932D01*
X216603411Y-95295990D01*
X216846632Y-95133475D01*
X217053475Y-94926632D01*
X217170000Y-94752240D01*
X217286525Y-94926632D01*
X217493368Y-95133475D01*
X217736589Y-95295990D01*
X218006842Y-95407932D01*
X218293740Y-95465000D01*
X218586260Y-95465000D01*
X218873158Y-95407932D01*
X219143411Y-95295990D01*
X219386632Y-95133475D01*
X219593475Y-94926632D01*
X219710000Y-94752240D01*
X219826525Y-94926632D01*
X220033368Y-95133475D01*
X220276589Y-95295990D01*
X220546842Y-95407932D01*
X220833740Y-95465000D01*
X221126260Y-95465000D01*
X221413158Y-95407932D01*
X221683411Y-95295990D01*
X221926632Y-95133475D01*
X222133475Y-94926632D01*
X222250000Y-94752240D01*
X222366525Y-94926632D01*
X222573368Y-95133475D01*
X222816589Y-95295990D01*
X223086842Y-95407932D01*
X223373740Y-95465000D01*
X223666260Y-95465000D01*
X223953158Y-95407932D01*
X224223411Y-95295990D01*
X224466632Y-95133475D01*
X224673475Y-94926632D01*
X224790000Y-94752240D01*
X224906525Y-94926632D01*
X225113368Y-95133475D01*
X225356589Y-95295990D01*
X225626842Y-95407932D01*
X225913740Y-95465000D01*
X226206260Y-95465000D01*
X226493158Y-95407932D01*
X226763411Y-95295990D01*
X227006632Y-95133475D01*
X227213475Y-94926632D01*
X227330000Y-94752240D01*
X227446525Y-94926632D01*
X227653368Y-95133475D01*
X227896589Y-95295990D01*
X228166842Y-95407932D01*
X228453740Y-95465000D01*
X228746260Y-95465000D01*
X229033158Y-95407932D01*
X229303411Y-95295990D01*
X229546632Y-95133475D01*
X229753475Y-94926632D01*
X229870000Y-94752240D01*
X229986525Y-94926632D01*
X230193368Y-95133475D01*
X230436589Y-95295990D01*
X230706842Y-95407932D01*
X230993740Y-95465000D01*
X231286260Y-95465000D01*
X231573158Y-95407932D01*
X231750000Y-95334682D01*
X231750000Y-97028000D01*
X188912500Y-97028000D01*
X188912500Y-94830000D01*
X196631928Y-94830000D01*
X196644188Y-94954482D01*
X196680498Y-95074180D01*
X196739463Y-95184494D01*
X196818815Y-95281185D01*
X196915506Y-95360537D01*
X197025820Y-95419502D01*
X197145518Y-95455812D01*
X197270000Y-95468072D01*
X197834250Y-95465000D01*
X197993000Y-95306250D01*
X197993000Y-94107000D01*
X196793750Y-94107000D01*
X196635000Y-94265750D01*
X196631928Y-94830000D01*
X188912500Y-94830000D01*
X188912500Y-85484538D01*
X190358966Y-84038072D01*
X191350000Y-84038072D01*
X191474482Y-84025812D01*
X191594180Y-83989502D01*
X191704494Y-83930537D01*
X191801185Y-83851185D01*
X191880537Y-83754494D01*
X191939502Y-83644180D01*
X191975812Y-83524482D01*
X191988072Y-83400000D01*
X191988072Y-81700000D01*
X191975812Y-81575518D01*
X191939502Y-81455820D01*
X191880537Y-81345506D01*
X191801185Y-81248815D01*
X191704494Y-81169463D01*
X191594180Y-81110498D01*
X191521620Y-81088487D01*
X191653475Y-80956632D01*
X191815990Y-80713411D01*
X191927932Y-80443158D01*
X191985000Y-80156260D01*
X191985000Y-79863740D01*
X191927932Y-79576842D01*
X191815990Y-79306589D01*
X191653475Y-79063368D01*
X191446632Y-78856525D01*
X191272240Y-78740000D01*
X191446632Y-78623475D01*
X191653475Y-78416632D01*
X191815990Y-78173411D01*
X191927932Y-77903158D01*
X191985000Y-77616260D01*
X191985000Y-77323740D01*
X191927932Y-77036842D01*
X191815990Y-76766589D01*
X191653475Y-76523368D01*
X191446632Y-76316525D01*
X191264466Y-76194805D01*
X191381355Y-76125178D01*
X191597588Y-75930269D01*
X191771641Y-75696920D01*
X191896825Y-75434099D01*
X191941476Y-75286890D01*
X191820155Y-75057000D01*
X190627000Y-75057000D01*
X190627000Y-75077000D01*
X190373000Y-75077000D01*
X190373000Y-75057000D01*
X189179845Y-75057000D01*
X189058524Y-75286890D01*
X189103175Y-75434099D01*
X189228359Y-75696920D01*
X189402412Y-75930269D01*
X189618645Y-76125178D01*
X189735534Y-76194805D01*
X189553368Y-76316525D01*
X189346525Y-76523368D01*
X189184010Y-76766589D01*
X189072068Y-77036842D01*
X189015000Y-77323740D01*
X189015000Y-77616260D01*
X189072068Y-77903158D01*
X189184010Y-78173411D01*
X189346525Y-78416632D01*
X189553368Y-78623475D01*
X189727760Y-78740000D01*
X189553368Y-78856525D01*
X189346525Y-79063368D01*
X189184010Y-79306589D01*
X189072068Y-79576842D01*
X189015000Y-79863740D01*
X189015000Y-80156260D01*
X189072068Y-80443158D01*
X189184010Y-80713411D01*
X189346525Y-80956632D01*
X189478380Y-81088487D01*
X189405820Y-81110498D01*
X189295506Y-81169463D01*
X189198815Y-81248815D01*
X189119463Y-81345506D01*
X189060498Y-81455820D01*
X189024188Y-81575518D01*
X189011928Y-81700000D01*
X189011928Y-82691034D01*
X187319569Y-84383393D01*
X187283222Y-84413222D01*
X187164194Y-84558259D01*
X187075748Y-84723732D01*
X187021283Y-84903277D01*
X187021283Y-84903278D01*
X187002892Y-85090000D01*
X187007500Y-85136785D01*
X187007501Y-97028000D01*
X186696842Y-97028000D01*
X186573475Y-96843368D01*
X186366632Y-96636525D01*
X186192240Y-96520000D01*
X186366632Y-96403475D01*
X186573475Y-96196632D01*
X186735990Y-95953411D01*
X186847932Y-95683158D01*
X186905000Y-95396260D01*
X186905000Y-95103740D01*
X186847932Y-94816842D01*
X186735990Y-94546589D01*
X186573475Y-94303368D01*
X186366632Y-94096525D01*
X186192240Y-93980000D01*
X186366632Y-93863475D01*
X186573475Y-93656632D01*
X186735990Y-93413411D01*
X186847932Y-93143158D01*
X186905000Y-92856260D01*
X186905000Y-92563740D01*
X186847932Y-92276842D01*
X186735990Y-92006589D01*
X186573475Y-91763368D01*
X186366632Y-91556525D01*
X186192240Y-91440000D01*
X186366632Y-91323475D01*
X186573475Y-91116632D01*
X186735990Y-90873411D01*
X186847932Y-90603158D01*
X186905000Y-90316260D01*
X186905000Y-90023740D01*
X186847932Y-89736842D01*
X186735990Y-89466589D01*
X186573475Y-89223368D01*
X186366632Y-89016525D01*
X186192240Y-88900000D01*
X186366632Y-88783475D01*
X186573475Y-88576632D01*
X186735990Y-88333411D01*
X186847932Y-88063158D01*
X186905000Y-87776260D01*
X186905000Y-87483740D01*
X186847932Y-87196842D01*
X186735990Y-86926589D01*
X186573475Y-86683368D01*
X186366632Y-86476525D01*
X186192240Y-86360000D01*
X186366632Y-86243475D01*
X186573475Y-86036632D01*
X186735990Y-85793411D01*
X186847932Y-85523158D01*
X186905000Y-85236260D01*
X186905000Y-84943740D01*
X186847932Y-84656842D01*
X186735990Y-84386589D01*
X186573475Y-84143368D01*
X186366632Y-83936525D01*
X186192240Y-83820000D01*
X186366632Y-83703475D01*
X186573475Y-83496632D01*
X186735990Y-83253411D01*
X186847932Y-82983158D01*
X186905000Y-82696260D01*
X186905000Y-82403740D01*
X186847932Y-82116842D01*
X186735990Y-81846589D01*
X186573475Y-81603368D01*
X186366632Y-81396525D01*
X186192240Y-81280000D01*
X186366632Y-81163475D01*
X186573475Y-80956632D01*
X186735990Y-80713411D01*
X186847932Y-80443158D01*
X186905000Y-80156260D01*
X186905000Y-79863740D01*
X186847932Y-79576842D01*
X186735990Y-79306589D01*
X186573475Y-79063368D01*
X186366632Y-78856525D01*
X186192240Y-78740000D01*
X186366632Y-78623475D01*
X186573475Y-78416632D01*
X186735990Y-78173411D01*
X186847932Y-77903158D01*
X186905000Y-77616260D01*
X186905000Y-77323740D01*
X186847932Y-77036842D01*
X186735990Y-76766589D01*
X186573475Y-76523368D01*
X186441620Y-76391513D01*
X186514180Y-76369502D01*
X186624494Y-76310537D01*
X186721185Y-76231185D01*
X186800537Y-76134494D01*
X186859502Y-76024180D01*
X186895812Y-75904482D01*
X186908072Y-75780000D01*
X186908072Y-74573110D01*
X189058524Y-74573110D01*
X189179845Y-74803000D01*
X190373000Y-74803000D01*
X190373000Y-73609186D01*
X190627000Y-73609186D01*
X190627000Y-74803000D01*
X191820155Y-74803000D01*
X191941476Y-74573110D01*
X191896825Y-74425901D01*
X191771641Y-74163080D01*
X191597588Y-73929731D01*
X191381355Y-73734822D01*
X191131252Y-73585843D01*
X190856891Y-73488519D01*
X190627000Y-73609186D01*
X190373000Y-73609186D01*
X190143109Y-73488519D01*
X189868748Y-73585843D01*
X189618645Y-73734822D01*
X189402412Y-73929731D01*
X189228359Y-74163080D01*
X189103175Y-74425901D01*
X189058524Y-74573110D01*
X186908072Y-74573110D01*
X186908072Y-74080000D01*
X186895812Y-73955518D01*
X186859502Y-73835820D01*
X186800537Y-73725506D01*
X186721185Y-73628815D01*
X186624494Y-73549463D01*
X186514180Y-73490498D01*
X186394482Y-73454188D01*
X186270000Y-73441928D01*
X184570000Y-73441928D01*
X184445518Y-73454188D01*
X184325820Y-73490498D01*
X184215506Y-73549463D01*
X184118815Y-73628815D01*
X184039463Y-73725506D01*
X183980498Y-73835820D01*
X183944188Y-73955518D01*
X183931928Y-74080000D01*
X183931928Y-75780000D01*
X183944188Y-75904482D01*
X183980498Y-76024180D01*
X184039463Y-76134494D01*
X184118815Y-76231185D01*
X184215506Y-76310537D01*
X184325820Y-76369502D01*
X184398380Y-76391513D01*
X184266525Y-76523368D01*
X184104010Y-76766589D01*
X183992068Y-77036842D01*
X183935000Y-77323740D01*
X183935000Y-77616260D01*
X183992068Y-77903158D01*
X184104010Y-78173411D01*
X184266525Y-78416632D01*
X184473368Y-78623475D01*
X184647760Y-78740000D01*
X184473368Y-78856525D01*
X184266525Y-79063368D01*
X184104010Y-79306589D01*
X183992068Y-79576842D01*
X183935000Y-79863740D01*
X183935000Y-80156260D01*
X183992068Y-80443158D01*
X184104010Y-80713411D01*
X184266525Y-80956632D01*
X184473368Y-81163475D01*
X184647760Y-81280000D01*
X184473368Y-81396525D01*
X184266525Y-81603368D01*
X184104010Y-81846589D01*
X183992068Y-82116842D01*
X183935000Y-82403740D01*
X183935000Y-82696260D01*
X183992068Y-82983158D01*
X184104010Y-83253411D01*
X184266525Y-83496632D01*
X184473368Y-83703475D01*
X184647760Y-83820000D01*
X184473368Y-83936525D01*
X184266525Y-84143368D01*
X184104010Y-84386589D01*
X183992068Y-84656842D01*
X183935000Y-84943740D01*
X183935000Y-85236260D01*
X183992068Y-85523158D01*
X184104010Y-85793411D01*
X184266525Y-86036632D01*
X184473368Y-86243475D01*
X184647760Y-86360000D01*
X184473368Y-86476525D01*
X184266525Y-86683368D01*
X184104010Y-86926589D01*
X183992068Y-87196842D01*
X183935000Y-87483740D01*
X183935000Y-87776260D01*
X183992068Y-88063158D01*
X184104010Y-88333411D01*
X184266525Y-88576632D01*
X184473368Y-88783475D01*
X184647760Y-88900000D01*
X184473368Y-89016525D01*
X184266525Y-89223368D01*
X184104010Y-89466589D01*
X183992068Y-89736842D01*
X183935000Y-90023740D01*
X183935000Y-90316260D01*
X183992068Y-90603158D01*
X184104010Y-90873411D01*
X184266525Y-91116632D01*
X184473368Y-91323475D01*
X184647760Y-91440000D01*
X184473368Y-91556525D01*
X184266525Y-91763368D01*
X184104010Y-92006589D01*
X183992068Y-92276842D01*
X183935000Y-92563740D01*
X183935000Y-92856260D01*
X183992068Y-93143158D01*
X184104010Y-93413411D01*
X184266525Y-93656632D01*
X184473368Y-93863475D01*
X184647760Y-93980000D01*
X184473368Y-94096525D01*
X184266525Y-94303368D01*
X184104010Y-94546589D01*
X183992068Y-94816842D01*
X183935000Y-95103740D01*
X183935000Y-95396260D01*
X183992068Y-95683158D01*
X184104010Y-95953411D01*
X184266525Y-96196632D01*
X184473368Y-96403475D01*
X184647760Y-96520000D01*
X184473368Y-96636525D01*
X184266525Y-96843368D01*
X184143158Y-97028000D01*
X163836842Y-97028000D01*
X163713475Y-96843368D01*
X163506632Y-96636525D01*
X163332240Y-96520000D01*
X163506632Y-96403475D01*
X163713475Y-96196632D01*
X163875990Y-95953411D01*
X163987932Y-95683158D01*
X164045000Y-95396260D01*
X164045000Y-95103740D01*
X163987932Y-94816842D01*
X163875990Y-94546589D01*
X163713475Y-94303368D01*
X163506632Y-94096525D01*
X163332240Y-93980000D01*
X163506632Y-93863475D01*
X163713475Y-93656632D01*
X163875990Y-93413411D01*
X163987932Y-93143158D01*
X164045000Y-92856260D01*
X164045000Y-92563740D01*
X163987932Y-92276842D01*
X163875990Y-92006589D01*
X163713475Y-91763368D01*
X163506632Y-91556525D01*
X163332240Y-91440000D01*
X163506632Y-91323475D01*
X163713475Y-91116632D01*
X163875990Y-90873411D01*
X163987932Y-90603158D01*
X164045000Y-90316260D01*
X164045000Y-90023740D01*
X163987932Y-89736842D01*
X163875990Y-89466589D01*
X163713475Y-89223368D01*
X163506632Y-89016525D01*
X163332240Y-88900000D01*
X163506632Y-88783475D01*
X163713475Y-88576632D01*
X163875990Y-88333411D01*
X163987932Y-88063158D01*
X164045000Y-87776260D01*
X164045000Y-87483740D01*
X163987932Y-87196842D01*
X163875990Y-86926589D01*
X163713475Y-86683368D01*
X163506632Y-86476525D01*
X163332240Y-86360000D01*
X163506632Y-86243475D01*
X163713475Y-86036632D01*
X163875990Y-85793411D01*
X163987932Y-85523158D01*
X164045000Y-85236260D01*
X164045000Y-84943740D01*
X163987932Y-84656842D01*
X163875990Y-84386589D01*
X163713475Y-84143368D01*
X163506632Y-83936525D01*
X163332240Y-83820000D01*
X163506632Y-83703475D01*
X163713475Y-83496632D01*
X163875990Y-83253411D01*
X163987932Y-82983158D01*
X164045000Y-82696260D01*
X164045000Y-82403740D01*
X163987932Y-82116842D01*
X163875990Y-81846589D01*
X163713475Y-81603368D01*
X163506632Y-81396525D01*
X163332240Y-81280000D01*
X163506632Y-81163475D01*
X163713475Y-80956632D01*
X163875990Y-80713411D01*
X163987932Y-80443158D01*
X164045000Y-80156260D01*
X164045000Y-79863740D01*
X163987932Y-79576842D01*
X163875990Y-79306589D01*
X163713475Y-79063368D01*
X163506632Y-78856525D01*
X163332240Y-78740000D01*
X163506632Y-78623475D01*
X163713475Y-78416632D01*
X163875990Y-78173411D01*
X163987932Y-77903158D01*
X164045000Y-77616260D01*
X164045000Y-77323740D01*
X163987932Y-77036842D01*
X163875990Y-76766589D01*
X163713475Y-76523368D01*
X163581620Y-76391513D01*
X163654180Y-76369502D01*
X163764494Y-76310537D01*
X163861185Y-76231185D01*
X163940537Y-76134494D01*
X163999502Y-76024180D01*
X164035812Y-75904482D01*
X164048072Y-75780000D01*
X164045000Y-75215750D01*
X163886250Y-75057000D01*
X162687000Y-75057000D01*
X162687000Y-75077000D01*
X162433000Y-75077000D01*
X162433000Y-75057000D01*
X161233750Y-75057000D01*
X161075000Y-75215750D01*
X161071928Y-75780000D01*
X161084188Y-75904482D01*
X161120498Y-76024180D01*
X161179463Y-76134494D01*
X161258815Y-76231185D01*
X161355506Y-76310537D01*
X161465820Y-76369502D01*
X161538380Y-76391513D01*
X161406525Y-76523368D01*
X161244010Y-76766589D01*
X161132068Y-77036842D01*
X161075000Y-77323740D01*
X161075000Y-77616260D01*
X161132068Y-77903158D01*
X161244010Y-78173411D01*
X161406525Y-78416632D01*
X161613368Y-78623475D01*
X161787760Y-78740000D01*
X161613368Y-78856525D01*
X161406525Y-79063368D01*
X161244010Y-79306589D01*
X161132068Y-79576842D01*
X161075000Y-79863740D01*
X161075000Y-80156260D01*
X161132068Y-80443158D01*
X161244010Y-80713411D01*
X161406525Y-80956632D01*
X161613368Y-81163475D01*
X161787760Y-81280000D01*
X161613368Y-81396525D01*
X161406525Y-81603368D01*
X161244010Y-81846589D01*
X161132068Y-82116842D01*
X161075000Y-82403740D01*
X161075000Y-82696260D01*
X161132068Y-82983158D01*
X161244010Y-83253411D01*
X161406525Y-83496632D01*
X161613368Y-83703475D01*
X161787760Y-83820000D01*
X161613368Y-83936525D01*
X161406525Y-84143368D01*
X161244010Y-84386589D01*
X161132068Y-84656842D01*
X161075000Y-84943740D01*
X161075000Y-85236260D01*
X161132068Y-85523158D01*
X161244010Y-85793411D01*
X161406525Y-86036632D01*
X161613368Y-86243475D01*
X161787760Y-86360000D01*
X161613368Y-86476525D01*
X161406525Y-86683368D01*
X161244010Y-86926589D01*
X161132068Y-87196842D01*
X161075000Y-87483740D01*
X161075000Y-87776260D01*
X161132068Y-88063158D01*
X161244010Y-88333411D01*
X161406525Y-88576632D01*
X161613368Y-88783475D01*
X161787760Y-88900000D01*
X161613368Y-89016525D01*
X161406525Y-89223368D01*
X161244010Y-89466589D01*
X161132068Y-89736842D01*
X161075000Y-90023740D01*
X161075000Y-90316260D01*
X161132068Y-90603158D01*
X161244010Y-90873411D01*
X161406525Y-91116632D01*
X161613368Y-91323475D01*
X161787760Y-91440000D01*
X161613368Y-91556525D01*
X161406525Y-91763368D01*
X161244010Y-92006589D01*
X161132068Y-92276842D01*
X161075000Y-92563740D01*
X161075000Y-92856260D01*
X161132068Y-93143158D01*
X161244010Y-93413411D01*
X161406525Y-93656632D01*
X161613368Y-93863475D01*
X161787760Y-93980000D01*
X161613368Y-94096525D01*
X161406525Y-94303368D01*
X161244010Y-94546589D01*
X161132068Y-94816842D01*
X161075000Y-95103740D01*
X161075000Y-95396260D01*
X161132068Y-95683158D01*
X161244010Y-95953411D01*
X161406525Y-96196632D01*
X161613368Y-96403475D01*
X161787760Y-96520000D01*
X161613368Y-96636525D01*
X161406525Y-96843368D01*
X161283158Y-97028000D01*
X160680000Y-97028000D01*
X160680000Y-74080000D01*
X161071928Y-74080000D01*
X161075000Y-74644250D01*
X161233750Y-74803000D01*
X162433000Y-74803000D01*
X162433000Y-73603750D01*
X162687000Y-73603750D01*
X162687000Y-74803000D01*
X163886250Y-74803000D01*
X164045000Y-74644250D01*
X164048072Y-74080000D01*
X164035812Y-73955518D01*
X163999502Y-73835820D01*
X163940537Y-73725506D01*
X163861185Y-73628815D01*
X163764494Y-73549463D01*
X163654180Y-73490498D01*
X163534482Y-73454188D01*
X163410000Y-73441928D01*
X162845750Y-73445000D01*
X162687000Y-73603750D01*
X162433000Y-73603750D01*
X162274250Y-73445000D01*
X161710000Y-73441928D01*
X161585518Y-73454188D01*
X161465820Y-73490498D01*
X161355506Y-73549463D01*
X161258815Y-73628815D01*
X161179463Y-73725506D01*
X161120498Y-73835820D01*
X161084188Y-73955518D01*
X161071928Y-74080000D01*
X160680000Y-74080000D01*
X160680000Y-73050000D01*
X193650000Y-73050000D01*
X193650001Y-92677571D01*
M02*
