G04 #@! TF.GenerationSoftware,KiCad,Pcbnew,5.1.6+dfsg1-1*
G04 #@! TF.CreationDate,2022-05-06T15:08:44-04:00*
G04 #@! TF.ProjectId,esp32-breadboard-adapter,65737033-322d-4627-9265-6164626f6172,rev?*
G04 #@! TF.SameCoordinates,Original*
G04 #@! TF.FileFunction,Copper,L4,Bot*
G04 #@! TF.FilePolarity,Positive*
%FSLAX46Y46*%
G04 Gerber Fmt 4.6, Leading zero omitted, Abs format (unit mm)*
G04 Created by KiCad (PCBNEW 5.1.6+dfsg1-1) date 2022-05-06 15:08:44*
%MOMM*%
%LPD*%
G01*
G04 APERTURE LIST*
G04 #@! TA.AperFunction,ComponentPad*
%ADD10O,1.700000X1.700000*%
G04 #@! TD*
G04 #@! TA.AperFunction,ComponentPad*
%ADD11R,1.700000X1.700000*%
G04 #@! TD*
G04 #@! TA.AperFunction,Conductor*
%ADD12C,0.228600*%
G04 #@! TD*
G04 APERTURE END LIST*
D10*
X231140000Y-93980000D03*
X228600000Y-93980000D03*
X226060000Y-93980000D03*
X223520000Y-93980000D03*
X220980000Y-93980000D03*
X218440000Y-93980000D03*
X215900000Y-93980000D03*
X213360000Y-93980000D03*
X210820000Y-93980000D03*
X208280000Y-93980000D03*
X205740000Y-93980000D03*
X203200000Y-93980000D03*
X200660000Y-93980000D03*
D11*
X198120000Y-93980000D03*
D10*
X231140000Y-101600000D03*
X228600000Y-101600000D03*
X226060000Y-101600000D03*
X223520000Y-101600000D03*
X220980000Y-101600000D03*
X218440000Y-101600000D03*
X215900000Y-101600000D03*
X213360000Y-101600000D03*
X210820000Y-101600000D03*
X208280000Y-101600000D03*
X205740000Y-101600000D03*
X203200000Y-101600000D03*
X200660000Y-101600000D03*
D11*
X198120000Y-101600000D03*
D10*
X190500000Y-113030000D03*
X190500000Y-115570000D03*
X190500000Y-118110000D03*
D11*
X190500000Y-120650000D03*
D10*
X190500000Y-74930000D03*
X190500000Y-77470000D03*
X190500000Y-80010000D03*
D11*
X190500000Y-82550000D03*
D10*
X185420000Y-120650000D03*
X185420000Y-118110000D03*
X185420000Y-115570000D03*
X185420000Y-113030000D03*
X185420000Y-110490000D03*
X185420000Y-107950000D03*
X185420000Y-105410000D03*
X185420000Y-102870000D03*
X185420000Y-100330000D03*
X185420000Y-97790000D03*
X185420000Y-95250000D03*
X185420000Y-92710000D03*
X185420000Y-90170000D03*
X185420000Y-87630000D03*
X185420000Y-85090000D03*
X185420000Y-82550000D03*
X185420000Y-80010000D03*
X185420000Y-77470000D03*
D11*
X185420000Y-74930000D03*
D10*
X162560000Y-120650000D03*
X162560000Y-118110000D03*
X162560000Y-115570000D03*
X162560000Y-113030000D03*
X162560000Y-110490000D03*
X162560000Y-107950000D03*
X162560000Y-105410000D03*
X162560000Y-102870000D03*
X162560000Y-100330000D03*
X162560000Y-97790000D03*
X162560000Y-95250000D03*
X162560000Y-92710000D03*
X162560000Y-90170000D03*
X162560000Y-87630000D03*
X162560000Y-85090000D03*
X162560000Y-82550000D03*
X162560000Y-80010000D03*
X162560000Y-77470000D03*
D11*
X162560000Y-74930000D03*
D12*
X185767467Y-104245699D02*
X175344301Y-104245699D01*
X189577467Y-100435699D02*
X185767467Y-104245699D01*
X202035699Y-100435699D02*
X189577467Y-100435699D01*
X203200000Y-101600000D02*
X202035699Y-100435699D01*
X174180000Y-105410000D02*
X162560000Y-105410000D01*
X175344301Y-104245699D02*
X174180000Y-105410000D01*
X205740000Y-101600000D02*
X204147089Y-100007089D01*
X185767467Y-101705699D02*
X172684301Y-101705699D01*
X187466077Y-100007089D02*
X185767467Y-101705699D01*
X204147089Y-100007089D02*
X187466077Y-100007089D01*
X171520000Y-102870000D02*
X162560000Y-102870000D01*
X172684301Y-101705699D02*
X171520000Y-102870000D01*
X208280000Y-101600000D02*
X206258479Y-99578479D01*
X186798741Y-99165699D02*
X171024301Y-99165699D01*
X187211521Y-99578479D02*
X186798741Y-99165699D01*
X206258479Y-99578479D02*
X187211521Y-99578479D01*
X169860000Y-100330000D02*
X162560000Y-100330000D01*
X171024301Y-99165699D02*
X169860000Y-100330000D01*
X167800000Y-97790000D02*
X162560000Y-97790000D01*
X168964301Y-96625699D02*
X167800000Y-97790000D01*
X189855699Y-96625699D02*
X168964301Y-96625699D01*
X192379869Y-99149869D02*
X189855699Y-96625699D01*
X208369869Y-99149869D02*
X192379869Y-99149869D01*
X210820000Y-101600000D02*
X208369869Y-99149869D01*
X213360000Y-101600000D02*
X210481259Y-98721259D01*
X210481259Y-98721259D02*
X192557405Y-98721259D01*
X187921845Y-94085699D02*
X168404301Y-94085699D01*
X192557405Y-98721259D02*
X187921845Y-94085699D01*
X167240000Y-95250000D02*
X162560000Y-95250000D01*
X168404301Y-94085699D02*
X167240000Y-95250000D01*
X215900000Y-101600000D02*
X212592649Y-98292649D01*
X212592649Y-98292649D02*
X192734941Y-98292649D01*
X185987991Y-91545699D02*
X168444301Y-91545699D01*
X192734941Y-98292649D02*
X185987991Y-91545699D01*
X167280000Y-92710000D02*
X162560000Y-92710000D01*
X168444301Y-91545699D02*
X167280000Y-92710000D01*
X218440000Y-101600000D02*
X214670000Y-97830000D01*
X214670000Y-97830000D02*
X192878438Y-97830000D01*
X192878438Y-97830000D02*
X191069219Y-96020781D01*
X185978865Y-89005699D02*
X167384301Y-89005699D01*
X191069219Y-94096053D02*
X185978865Y-89005699D01*
X191069219Y-96020781D02*
X191069219Y-94096053D01*
X166220000Y-90170000D02*
X162560000Y-90170000D01*
X167384301Y-89005699D02*
X166220000Y-90170000D01*
X220980000Y-101600000D02*
X216781390Y-97401390D01*
X216781390Y-97401390D02*
X193055974Y-97401390D01*
X185978865Y-86465699D02*
X167224301Y-86465699D01*
X191497829Y-91984663D02*
X185978865Y-86465699D01*
X191497829Y-95843245D02*
X191497829Y-91984663D01*
X193055974Y-97401390D02*
X191497829Y-95843245D01*
X166060000Y-87630000D02*
X167224301Y-86465699D01*
X162560000Y-87630000D02*
X166060000Y-87630000D01*
X223520000Y-101600000D02*
X218892780Y-96972780D01*
X193302780Y-96972780D02*
X191926439Y-95596439D01*
X218892780Y-96972780D02*
X193302780Y-96972780D01*
X185978865Y-83925699D02*
X166864301Y-83925699D01*
X191926439Y-89873273D02*
X185978865Y-83925699D01*
X191926439Y-95596439D02*
X191926439Y-89873273D01*
X165700000Y-85090000D02*
X162560000Y-85090000D01*
X166864301Y-83925699D02*
X165700000Y-85090000D01*
X226060000Y-101600000D02*
X221004170Y-96544170D01*
X193574170Y-96544170D02*
X192355049Y-95325049D01*
X221004170Y-96544170D02*
X193574170Y-96544170D01*
X192355049Y-95325049D02*
X192355048Y-89695736D01*
X192355048Y-89695736D02*
X187524656Y-84865344D01*
X185978865Y-81385699D02*
X167304301Y-81385699D01*
X187524656Y-82931490D02*
X185978865Y-81385699D01*
X187524656Y-84865344D02*
X187524656Y-82931490D01*
X166140000Y-82550000D02*
X162560000Y-82550000D01*
X167304301Y-81385699D02*
X166140000Y-82550000D01*
X228600000Y-101600000D02*
X223115560Y-96115560D01*
X193945560Y-96115560D02*
X192783657Y-94953657D01*
X223115560Y-96115560D02*
X193945560Y-96115560D01*
X192783657Y-89518199D02*
X187953266Y-84687808D01*
X192783657Y-94953657D02*
X192783657Y-89518199D01*
X185978865Y-78845699D02*
X166744301Y-78845699D01*
X187953266Y-80820100D02*
X185978865Y-78845699D01*
X187953266Y-84687808D02*
X187953266Y-80820100D01*
X165580000Y-80010000D02*
X162560000Y-80010000D01*
X166744301Y-78845699D02*
X165580000Y-80010000D01*
X225226950Y-95686950D02*
X194123096Y-95686950D01*
X231140000Y-101600000D02*
X225226950Y-95686950D01*
X193212267Y-94776121D02*
X193212266Y-89340662D01*
X194123096Y-95686950D02*
X193212267Y-94776121D01*
X185978865Y-76305699D02*
X165984301Y-76305699D01*
X188381876Y-78708710D02*
X185978865Y-76305699D01*
X188381876Y-84510272D02*
X188381876Y-78708710D01*
X193212266Y-89340662D02*
X188381876Y-84510272D01*
X164820000Y-77470000D02*
X162560000Y-77470000D01*
X165984301Y-76305699D02*
X164820000Y-77470000D01*
M02*
